SplineFontDB: 3.0
FontName: Experiment-Sinhala-Italic
FullName: Experiment-Sinhala
FamilyName: Experiment-Sinhala
Weight: Italic
Copyright: Copyright (c) 2015, Pathum Egodawatta
UComments: "2015-9-29: Created with FontForge (http://fontforge.org)"
Version: 0.001
ItalicAngle: 0
UnderlinePosition: -99
UnderlineWidth: 49
Ascent: 750
Descent: 250
InvalidEm: 0
LayerCount: 4
Layer: 0 0 "Back" 1
Layer: 1 0 "Fore" 0
Layer: 2 0 "Back 3" 1
Layer: 3 0 "s1" 1
PreferredKerning: 4
XUID: [1021 779 -1439063335 14876943]
FSType: 0
OS2Version: 0
OS2_WeightWidthSlopeOnly: 0
OS2_UseTypoMetrics: 1
CreationTime: 1443542790
ModificationTime: 1461515192
PfmFamily: 17
TTFWeight: 400
TTFWidth: 5
LineGap: 122
VLineGap: 0
OS2TypoAscent: 879
OS2TypoAOffset: 0
OS2TypoDescent: -250
OS2TypoDOffset: 0
OS2TypoLinegap: 122
OS2WinAscent: 879
OS2WinAOffset: 0
OS2WinDescent: 49
OS2WinDOffset: 0
HheadAscent: 779
HheadAOffset: 0
HheadDescent: -27
HheadDOffset: 0
OS2CapHeight: 0
OS2XHeight: 0
OS2Vendor: 'PfEd'
Lookup: 4 0 0 "'abvs' Above Base Substitutions in Sinhala lookup 0" { "'abvs' Above Base Substitutions in Sinhala lookup 0-1"  "'abvs' Above Base Substitutions in Sinhala lookup 0-2"  } ['abvs' ('DFLT' <'dflt' > 'sinh' <'dflt' > ) ]
Lookup: 4 0 0 "si_akhands" { "si_akhands subtable"  } ['akhn' ('sinh' <'dflt' > ) ]
Lookup: 4 0 0 "si_reph" { "si_reph subtable"  } ['rphf' ('sinh' <'dflt' > ) ]
Lookup: 4 0 0 "si_halant_1" { "si_halant_1 subtable"  } ['abvs' ('sinh' <'dflt' > ) ]
Lookup: 4 0 0 "si_halant_2" { "si_halant_2 subtable"  } ['abvs' ('sinh' <'dflt' > ) ]
Lookup: 4 0 0 "si_halant_3" { "si_halant_3 subtable"  } ['abvs' ('sinh' <'dflt' > ) ]
Lookup: 4 0 0 "si_abvs_1" { "si_abvs_1 subtable"  } ['abvs' ('sinh' <'dflt' > ) ]
Lookup: 4 0 0 "si_abvs_2" { "si_abvs_2 subtable"  } ['abvs' ('sinh' <'dflt' > ) ]
Lookup: 4 0 0 "si_abvs_3" { "si_abvs_3 subtable"  } ['abvs' ('sinh' <'dflt' > ) ]
Lookup: 4 0 0 "si_abvs_4" { "si_abvs_4 subtable"  } ['abvs' ('sinh' <'dflt' > ) ]

StartChar: si_Tta
Encoding: 34 3495 0
GlifName: si_T_ta
Width: 624
VWidth: 2
Flags: HMW
LayerCount: 4
Back
SplineSet
364.567382812 329 m 1
 341.567382812 338 298.567382812 345 271.567382812 343 c 0
 200.567382812 338 109.567382812 299 109.567382812 197 c 0
 109.567382812 109 206.567382812 49 339.567382812 48 c 0
 534.564453125 46.5341796875 602.567382812 192 606.567382812 317 c 0
 612.567382812 514 503.567382812 654 336.567382812 657 c 4
 210.571289062 659.263671875 111.567382812 583 108.567382812 583 c 5
 80.5673828125 627 l 4
 80.5673828125 627 197.565429688 712.665039062 344.567382812 712 c 4
 565.567382812 711 688.567382812 549 688.567382812 312 c 0
 688.567382812 103 569.567382812 -59 329.567382812 -59 c 0
 146.567382812 -59 44.5673828125 50 44.5673828125 176 c 0
 44.5673828125 321 163.567382812 394 274.567382812 398 c 0
 336.567382812 400 376.567382812 379 376.567382812 379 c 1
 364.567382812 329 l 1
EndSplineSet
Fore
SplineSet
347 326 m 1
 269 335 103 307 93 173 c 4
 88 99 179 64 263 71 c 0
 444 86 550 237 562 392 c 0
 572 518 474 603 368 603 c 0
 262 603 192 569 108 497 c 1
 84 525 l 1
 137 592 245 691 388 691 c 0
 554 691 607 556 607 417 c 0
 607 179 500 -8 256 -22 c 0
 121 -30 38 48 45 151 c 4
 55 298 185 407 343 425 c 1
 347 326 l 1
EndSplineSet
Layer: 2
SplineSet
374.567382812 272 m 5
 228.567382812 288 125.567382812 252 127.567382812 158 c 4
 128.567382812 94 181.567382812 42 321.567382812 43 c 4
 490.567382812 44 599.264648438 173.225585938 607.567382812 326 c 4
 617.567382812 510 514.263671875 659.0234375 320.567382812 648 c 4
 197.567382812 641 104.567382812 580 101.567382812 580 c 5
 78.5673828125 627 l 5
 118.567382812 651 223.567382812 706 351.567382812 706 c 4
 568.567382812 705 688.567382812 537 678.567382812 321 c 4
 668.669921875 107.228515625 545.567382812 -56 299.567382812 -58 c 4
 163.567382812 -59 44.5673828125 8 44.5673828125 137 c 4
 44.5673828125 291 203.567382812 335 325.567382812 328 c 5
 335.567382812 388 302.567382812 438 210.567382812 438 c 5
 184.567382812 357 l 5
 133.567382812 350 98.5673828125 379 107.567382812 425 c 4
 117.567382812 481 175.567382812 500 222.567382812 500 c 4
 298.567382812 500 381.567382812 469 382.567382812 359 c 4
 382.567382812 323 374.567382812 272 374.567382812 272 c 5
EndSplineSet
Layer: 3
EndChar

StartChar: si_Pa
Encoding: 46 3508 1
GlifName: si_P_a
Width: 681
VWidth: -11
Flags: HMW
LayerCount: 4
Back
SplineSet
512 352 m 1
 452 332 l 1
 444 357 437 384 437 426 c 0
 438 512 509 556 570 556 c 0
 653 556 705 509 705 429 c 0
 705 351 618 309 618 309 c 1
 602 326 l 1
 625 355 641 384 641 424 c 0
 641 460 612 494 563 494 c 0
 526 494 491 470 491 427 c 0
 491 375 512 352 512 352 c 1
119 209 m 0
 118 124 203 55 388 55 c 4
 553 55 659 127 660 206 c 0
 662 318 549 347 452 332 c 1
 484 383 l 1
 616 395 740 331 736 193 c 0
 731 29 564 -49 383 -49 c 0
 189 -49 38 33 40 180 c 0
 42 339 208 394 316 384 c 1
 282 345 l 1
 289 365 298 386 298 415 c 0
 297 463 239 505 171 490 c 0
 204 511 l 1
 145 405 l 1
 104 407 77 432 78 467 c 0
 80 527 142 557 202 557 c 0
 272 557 344 517 346 439 c 0
 347 402 341 370 332 333 c 1
 208 351 120 287 119 209 c 0
EndSplineSet
Fore
SplineSet
285 410 m 1
 307 332 l 17
 195 345.237113402 83.134765625 295.752929688 80 215 c 0
 76.853515625 133.962890625 142.805664062 72.0302734375 317 76 c 0
 422.0485416 78.3939583552 583 152 596 264 c 0
 607 329.369565217 497 348.913043478 378 326 c 1
 424 411 l 1
 502 429.543859649 654 412.766081871 636 260 c 0
 622.775147929 105.083333333 492.318534941 -0.44982054922 338 -10 c 0
 116.669921875 -23.697265625 48.220703125 61.6474609375 33 139 c 0
 12.173828125 240.642578125 115.26446281 402.914027149 285 410 c 1
432 357 m 1
 378 326 l 1
 368 460.512820513 444 570 552 570 c 0
 616 570 656 531 657 478 c 0
 659 410 616 377 560 346 c 1
 545 378 l 1
 578 387 603 387 603 448 c 0
 603 478 557 506 525 506 c 0
 454 506 420 439.539568345 432 357 c 1
272 399 m 1
 286 403 298 425 298 452 c 0
 298 495.317073171 258.435546875 502.877929688 187 490 c 4
 143 408 l 4
 117 405 86 428 86 459 c 4
 86 529 154 560 208 560 c 4
 275 560 336 527 336 464 c 0
 336 419 319 359 306 332 c 1
 272 399 l 1
EndSplineSet
Layer: 2
Layer: 3
EndChar

StartChar: si_Va
Encoding: 55 3520 2
GlifName: si_V_a
Width: 587
VWidth: 2
Flags: HMW
LayerCount: 4
Back
SplineSet
339 272 m 1
 193 288 90 252 92 158 c 0
 93 94 166 42 306 43 c 0
 475 44 572 173 572 326 c 0
 572 510 469 650 275 648 c 0
 162 647 59 585 56 585 c 1
 33 632 l 1
 73 656 178 706 306 706 c 0
 523 705 643 537 643 321 c 0
 643 107 530 -56 284 -58 c 0
 148 -59 9 8 9 137 c 0
 9 291 168 335 290 328 c 1
 300 388 267 438 175 438 c 1
 149 357 l 1
 98 350 63 379 72 425 c 0
 82 481 140 500 187 500 c 0
 263 500 346 469 347 359 c 0
 347 323 339 272 339 272 c 1
EndSplineSet
Fore
SplineSet
224 260 m 1
 238 269 279 347 279 379 c 0
 279 402 264.969726562 411.192382812 227 413 c 0
 206 414 179 402 179 402 c 0
 135 347 l 0
 105 344 84 355 84 386 c 0
 84 447 162 477 216 477 c 0
 263 477 320 454 320 391 c 0
 320 346 303 279 290 252 c 1
 224 260 l 1
290 253 m 1
 215.482421875 262 69 264 69 160 c 4
 69 97.7939453125 168.873499406 57.309867486 266 68 c 4
 450.115497173 88.2644906449 528.7421875 258.984375 541 409 c 0
 551.825195312 540.971679688 445.7421875 640 331 640 c 0
 245 640 165 606 91 534 c 1
 61 552 l 1
 104 619 208 718 351 718 c 0
 524.580078125 718 580 578.073242188 580 434 c 0
 580 196 480.155273438 -11 239 -15 c 4
 116.005639352 -17.0400857737 19.2626953125 34.798828125 28 141 c 0
 37.2890625 253.911132812 120.805664062 333.557617188 286 342 c 1
 290 253 l 1
EndSplineSet
Layer: 2
Layer: 3
EndChar

StartChar: si_Ra
Encoding: 53 3515 4
GlifName: si_R_a
Width: 713
VWidth: -5
Flags: HMW
LayerCount: 4
Back
SplineSet
572 802 m 1
 572 710 479 648 367 574 c 0
 269 516 138 408 138 258 c 0
 138 131 217 53 346 53 c 0
 476 53 548 130 549 251 c 0
 550 382 450 451 346 451 c 0
 227 451 161 366 161 366 c 1
 197 450 l 0
 196 453 252 511 364 513 c 0
 470 514 626 446 626 250 c 0
 626 82 528 -44 347 -44 c 0
 156 -44 62 85 62 252 c 0
 62 531 375 624 453 726 c 1
 503 834 l 1
 553 843 572 823 572 802 c 1
EndSplineSet
Fore
SplineSet
622.604492188 795 m 1
 613.038085938 717.080078125 540.739257812 670.377929688 424.153320312 604 c 0
 286.576171875 526 127.947265625 415 107.073242188 245 c 0
 93.935546875 138 193.112304688 58 339.112304688 58 c 0
 487.551757812 58 586.086914062 173 601.388671875 272 c 4
 622.6484375 409.393554688 497.546875 436 372.525390625 436 c 0
 213.774414062 436 130.615234375 339 130.615234375 339 c 1
 165.859375 398 l 0
 165.227539062 401 289.96875 521.868164062 403.3125 532 c 0
 564.853515625 546.440429688 672.618164062 424.852539062 647.073242188 245 c 0
 624.064453125 83.00390625 495.723632812 -52 301.606445312 -52 c 0
 98.6064453125 -52 39.90234375 94.03515625 67.9326171875 252 c 0
 109.821289062 488.061523438 352.153320312 604 466.360351562 736 c 1
 518.393554688 834 l 1
 561.307617188 835.307617188 625.844726562 821.384765625 622.604492188 795 c 1
EndSplineSet
Layer: 2
Layer: 3
EndChar

StartChar: si_Ca
Encoding: 27 3488 5
GlifName: si_C_a
Width: 634
VWidth: -14
Flags: HMW
LayerCount: 4
Back
SplineSet
37 322 m 1
 408 322 l 1
 408 264 l 1
 120 264 l 1
 36 252 l 1
 37 322 l 1
338 266 m 1
 347 317 l 1
 341 359 l 1
 341 359 334 420 228 420 c 0
 201 348 l 1
 172 333 133 352 139 404 c 0
 145 464 206 480 263 479 c 0
 404 478 418 362 418 362 c 0
 408 264 l 1
 338 266 l 1
291 269 m 1
 289 269 154 247 153 173 c 0
 152 93 227 58 351 57 c 0
 527 56 580 200 580 336 c 0
 580 513 496 639 353 640 c 0
 213 641 111 568 108 568 c 1
 83 614 l 0
 122 635 232 695 360 695 c 0
 560 694 659 538 659 331 c 0
 659 113 561 -37 342 -37 c 0
 162 -37 79 43 79 132 c 0
 79 204 125 251 180 268 c 1
 291 269 l 1
EndSplineSet
Fore
SplineSet
-43 308 m 5
 328 344 l 1
 323 294 l 1
 160 304 l 1
 -44 252 l 5
 -43 308 l 5
EndSplineSet
Refer: 2 3520 N 1 0 0 1 27 0 2
Layer: 2
SplineSet
344.2265625 290.141601562 m 5
 336.536132812 372.172851562 l 5
 336.536132812 372.172851562 313.46484375 416.264648438 228.357421875 416.264648438 c 4
 222.205078125 356.279296875 l 5
 152.991210938 355.25390625 l 5
 145.813476562 365.5078125 141.19921875 392.680664062 141.19921875 409.599609375 c 4
 141.19921875 459.84375 199.133789062 479.326171875 246.301757812 479.326171875 c 4
 337.561523438 479.326171875 412.415039062 437.28515625 420.618164062 328.081054688 c 4
 417.541992188 225.029296875 l 5
 344.2265625 290.141601562 l 5
417.541992188 225.029296875 m 5
 416.516601562 225.029296875 381.653320312 225.541992188 338.586914062 225.541992188 c 4
 262.561523438 225.541992188 161.194335938 217.26953125 161.194335938 152.739257812 c 5
 163.30078125 117.782226562 214.788085938 54.419921875 356.53125 53.2763671875 c 4
 506.75 52.064453125 573.9140625 170.841796875 573.9140625 336.284179688 c 5
 573.9140625 521.017578125 507.776367188 628.779296875 338.586914062 636.2109375 c 5
 251.428710938 632.109375 101.208984375 569.047851562 98.1328125 569.047851562 c 5
 81.7265625 610.576171875 l 4
 119.153320312 637.236328125 249.377929688 696.196289062 339.612304688 695.68359375 c 4
 549.817382812 694.658203125 655.9453125 548.540039062 655.9453125 331.157226562 c 4
 655.9453125 112.749023438 568.787109375 -37.470703125 352.4296875 -37.470703125 c 4
 196.057617188 -37.470703125 82.751953125 25.078125 82.751953125 147.099609375 c 4
 82.751953125 277.32421875 230.408203125 289.116210938 230.408203125 289.116210938 c 5
 344.2265625 292.192382812 l 5
 417.541992188 225.029296875 l 5
EndSplineSet
Layer: 3
EndChar

StartChar: si_Sa
Encoding: 58 3523 6
GlifName: si_S_a
Width: 795
VWidth: -11
Flags: W
HStem: 502 68<311.07 397.628 579.365 699.076>
VStem: 409 38<364.328 487.448> 418 34<171.065 222> 716 49<407.17 483.648>
LayerCount: 4
Back
SplineSet
87 375 m 1
 463 383 l 1
 465 332 l 1
 171 325 l 1
 86 312 l 1
 87 375 l 1
615 363 m 1
 604 381 l 1
 700 407 873 371 873 186 c 0
 873 64 792 -35 667 -35 c 0
 542 -35 499 61 484 126 c 1
 482 123 531 129 529 126 c 1
 502 25 439 -34 338 -34 c 0
 202 -35 150 55 152 154 c 0
 154 274 233 336 265 337 c 1
 336 334 l 1
 271 321 224 267 224 183 c 0
 224 103 280 68 348 69 c 0
 408 70 483 91 483 215 c 1
 542 215 l 1
 538 91 605 64 675 64 c 0
 769 64 801 129 802 195 c 0
 803 281 727 367 560 332 c 1
 555 351 550 368 550 388 c 0
 548 500 631 557 705 557 c 0
 772 557 838 522 838 442 c 0
 838 346 755 320 755 320 c 1
 739 327 l 1
 739 327 777 381 778 430 c 0
 778 468 760 500 701 501 c 0
 655 502 616 473 611 421 c 0
 607 375 622 347 622 347 c 1
 615 363 l 1
424 350 m 1
 427 384 429 413 417 441 c 0
 403 476 358 498 308 493 c 0
 257 409 l 1
 227 412 193 429 193 466 c 0
 193 533 273 558 320 558 c 0
 400 558 459 524 473 439 c 0
 481 385 472 353 465 333 c 1
 424 350 l 1
EndSplineSet
Fore
SplineSet
38 361 m 1x90
 113 378 329 409 421 405 c 1
 419 333 l 1
 314 361 l 0
 198.688476562 372.611328125 75.1640625 289.999023438 40 265.573242188 c 1
 27 276 l 1
 38 361 l 1x90
295 374 m 1
 425 332 l 1
 333.588867188 369.176757812 146.2734375 269.903320312 157 154 c 0
 161.412109375 109 211.051757812 81 264 81 c 0
 336 81 405 138 418 222 c 1
 452 225 l 1xb0
 444 144 461.966796875 92.70703125 523 86 c 0
 614 76 696.521484375 129.94921875 704 209 c 0
 713 312.26171875 605 359.73828125 486 336 c 1
 523 398 l 5
 615 431.48828125 781.469726562 418.970703125 749 206 c 0
 726 63 616.017578125 -15.6025390625 509 -11 c 0
 424.942382812 -7 395.961914062 56 405 128 c 1
 424 98 l 1
 398.688476562 36 334.547851562 -21.541015625 231 -10 c 0
 136.368164062 1.1240234375 110.526367188 59.470703125 107 117 c 0
 100.663085938 224.5546875 193.606445312 353.62109375 295 374 c 1
522 379 m 1
 486 336 l 1
 476 479 561 570 654 570 c 0
 720 570 764.205078125 531.002929688 765 473 c 0
 766 400 700 369 673 353 c 1
 639 380 l 1
 697 399 716 419.984375 716 452 c 0
 716 472 686.341796875 503.766601562 635 503 c 0
 568 502 520 451 522 379 c 1
379 363 m 1
 393 372 409 420 409 452 c 0
 409 475 388.012695312 502 350 502 c 0
 333 502 314 488 314 488 c 0
 260 433 l 0
 230 430 199 448 199 479 c 0
 199 540 267 570 321 570 c 0
 398 570 447 527 447 464 c 0xd0
 447 419 432 359 419 332 c 1
 379 363 l 1
EndSplineSet
Layer: 2
Layer: 3
EndChar

StartChar: si_Ka
Encoding: 21 3482 7
GlifName: si_K_a
Width: 954
VWidth: -11
Flags: HMW
LayerCount: 4
Back
SplineSet
270 377 m 5x30
 282 400 286 421 285 439 c 4
 283 481 246.760742188 505.678710938 197 501 c 4
 162.934570312 497.796875 127 470 133 426 c 5
 173 371 l 5
 159 347 136.001953125 335.022460938 114 336 c 4
 69 338 49 369 49 415 c 4
 49 495 115.983398438 563.181640625 213 559 c 4
 295.926757812 555.42578125 345 480 318 416 c 4
 303 380 318 404 305 387 c 5
 270 377 l 5x30
292 408 m 5
 302 417 302 407 314 415 c 5
 401 493 538.004882812 560.463867188 677 562 c 4
 858 564 1015 438 1017 245 c 4
 1019 73 928 -35 785 -33 c 4
 746.990234375 -32.46875 716 -22 701 -15 c 5
 712 39 l 5
 736 27 777.981445312 20.23046875 802 22 c 4
 897 29 948.448242188 116.266601562 940 223 c 4
 927.975585938 374.922851562 808 459 647 459 c 4
 554 459 419 442 320 353 c 5
 307 350 l 5
 292 408 l 5
37 112 m 5
 99.96484375 225.337890625 199 331 312 419 c 5
 319 364 l 4
 313 359 307 349 301 344 c 5
 196 255 112 159 73 92 c 5
 73 92 47 103 37 112 c 5
114 175 m 5
 122 179 131 182 138 182 c 4
 186 183 200 74 283 74 c 4
 322 74 382 101 383 197 c 5
 418 197 l 4
 419 94 489 73 539 74 c 4
 589 75 634 118 634 194 c 4
 634 273 558 345 434 345 c 4
 372 345 296 329 263 311 c 5
 317 364 l 5
 330 368 374.99609375 391.383789062 452 392 c 4
 577 393 707 328 707 178 c 4
 707 44 634 -34 529 -34 c 4
 425 -34 401 39 401 39 c 5
 401 39 377 -33 274 -33 c 4
 116 -34 157 189 102 140 c 4
 114 175 l 5
EndSplineSet
Fore
SplineSet
243 346 m 1
 277 374.682617188 315 408.48828125 315 472 c 0
 315 502 282.828125 538.70703125 228 525 c 0
 196 517 168 494 167 468 c 1
 194 372 l 0
 178 349 141 339 121 344 c 0
 97 350 79 378 79 416 c 0
 79 485.333007812 150.84375 562.110351562 247 576 c 0
 337 589 369 548 369 503 c 0
 369 436 313 399 292 369 c 0
 243 346 l 1
47 109 m 1
 120.323943662 213.614420063 206.190140845 320.166144201 321 418 c 1
 393 490 550.998218626 572.282042407 687 573 c 0
 876.428710938 574 945.560546875 396.993164062 898 244 c 0
 858.627929688 117.34765625 773.161132812 9 628 -1 c 5
 638 96 l 0
 749.501953125 99.9072265625 831.232421875 152.56640625 849 226 c 0
 879.317382812 360.067382812 766.422852937 491.999950379 622 488 c 0
 436.00390625 482.848632812 327 370 327 370 c 1
 258 315.931818182 237 291.113636364 166 214 c 1
 73 94 l 1
 47 109 l 1
209 261 m 1
 176 231 155.007895626 98.4644267076 241 100 c 0
 297 101 375 156 400 223 c 1
 427 228 l 1
 420 152 432 105 484 105 c 0
 519 105 597.484335106 132.912276592 615 231 c 0
 630 315 555.99910277 344.988707734 493 350 c 0
 405 357 289 323 221 275 c 1
 264 319 l 1
 275 322 396.98945416 425.510010703 525 423 c 0
 627 421 679.238258301 349.957832358 657 225 c 0
 636 107 539.075311127 -5.18311568771 435 4 c 0
 367 10 345 78 364 128 c 1
 392 135 l 1
 376 100 327 5 216 5 c 0
 128 5 126.325320286 113.28921208 151 185 c 0
 163 209.111111111 177 239.444335938 194 255 c 0
 209 261 l 1
EndSplineSet
Layer: 2
SplineSet
31.326171875 67.880859375 m 4
 141.326171875 281.57421875 385.939453125 524.341796875 608.62109375 533.0859375 c 4
 763.192382812 539.15625 907.725585938 463.5625 922.004882812 265.268554688 c 4
 930.497070312 124.8046875 879.6171875 -34.4140625 728.591796875 -34.8349609375 c 4
 693.2109375 -34.93359375 666.04296875 -23.37890625 666.04296875 -23.37890625 c 5
 677.322265625 29.4287109375 l 5
 677.322265625 29.4287109375 695.873046875 21.8466796875 721.412109375 21.806640625 c 4
 807.055664062 21.6630859375 850.763671875 102.141601562 846.553710938 211.435546875 c 4
 841.166015625 351.30078125 750.966796875 431.989257812 615.798828125 441.000976562 c 4
 526.961914062 447.6640625 438.952148438 415.846679688 358.42578125 365.911132812 c 5
 227.13671875 271.62109375 119.274414062 117.798828125 72.8544921875 37.119140625 c 5
 72.8544921875 37.119140625 26.4423828125 58.3955078125 31.326171875 67.880859375 c 4
123.098632812 125.302734375 m 5
 211.37109375 136.614257812 187.497070312 68.2265625 272.805664062 67.880859375 c 4
 311.783203125 67.72265625 363.271484375 94.3310546875 364.065429688 189.537109375 c 5
 417.8984375 189.389648438 l 4
 419.41796875 86.7236328125 478.942382812 67.1943359375 513.772460938 67.880859375 c 4
 574.311523438 69.07421875 594.265625 108.717773438 594.265625 174.521484375 c 4
 594.265625 258.342773438 527.046875 335.881835938 397.903320312 336.8125 c 4
 356.630859375 337.111328125 331.022460938 332.555664062 298.953125 320.126953125 c 5
 356.375 373.447265625 l 5
 369.348632812 377.874023438 385.5078125 385.955078125 416.360351562 386.822265625 c 4
 521.364257812 389.775390625 670.14453125 341.606445312 670.14453125 166.318359375 c 4
 670.14453125 46.3330078125 621.326171875 -34.4091796875 515.823242188 -34.830078125 c 4
 401.723632812 -35.283203125 394.314453125 53.525390625 394.314453125 53.525390625 c 5
 394.314453125 53.525390625 372.747070312 -33.6240234375 270.2421875 -34.02734375 c 4
 121.338867188 -34.615234375 153.34765625 130.942382812 97.9765625 77.109375 c 4
 123.098632812 125.302734375 l 5
244.607421875 343.198242188 m 5
 293.935546875 386.706054688 280.552734375 475.928710938 198.46484375 475.555664062 c 4
 160.796875 475.383789062 129.247070312 443.416015625 130.7890625 409.3359375 c 5
 175.90625 333.45703125 l 4
 118.484375 303.073242188 l 4
 85.5380859375 307.661132812 40.951171875 329.982421875 37.478515625 387.745117188 c 4
 32.6318359375 468.33984375 109.56640625 534.123046875 197.439453125 536.939453125 c 4
 329.852539062 541.184570312 358.092773438 430.3125 327.266601562 380.625 c 4
 302.954101562 341.435546875 319.93359375 359.189453125 282.034179688 327.3046875 c 5
 244.607421875 343.198242188 l 5
EndSplineSet
Layer: 3
EndChar

StartChar: uni0061
Encoding: 542 97 8
GlifName: uni0061
Width: 626
VWidth: 153
Flags: W
HStem: -13 74<213.748 329.875> 10 39<565.076 605>
VStem: 55 126<92.3691 210.483> 98 88<401 503.572>
LayerCount: 4
Back
SplineSet
55 125 m 0
 55 226 125 296 280 331 c 0
 372 352 446 356 446 356 c 1
 446 273 l 1
 446 273 382 299 305 288 c 0
 228 277 183 218 181 160 c 0
 179 96 216.876403087 62.3764722148 274 61 c 0
 357 59 414 118 420 159 c 1
 448 119 l 1
 448 119 398 -13 218 -13 c 0
 127 -13 55 32 55 125 c 0
95 539 m 1
 144 566 250 611 349 611 c 0
 485 611 529 575 532 443 c 0
 534 365 517 172 534 101 c 0
 543 63 563 44 605 49 c 1
 616 10 l 1
 595 2 540 -28 482 -10 c 0
 438 4 429 50 423 109 c 1
 413 109 l 1
 425 198 428 399 414 457 c 0
 393 546 332 561 287 553 c 0
 229 542 205 507 174 474 c 1
 230 557 l 1
 209 512 192 469 186 401 c 1
 98 392 l 1
 92 459 95 539 95 539 c 1
EndSplineSet
Fore
SplineSet
55 125 m 0xa0
 55 226 125 296 280 331 c 0
 372 352 446 356 446 356 c 1
 446 273 l 1
 446 273 382 299 305 288 c 0
 228 277 183 218 181 160 c 0
 179 96 216.876403087 62.3764722148 274 61 c 0
 357 59 414 118 420 159 c 1
 448 119 l 1
 448 119 398 -13 218 -13 c 0
 127 -13 55 32 55 125 c 0xa0
95 539 m 1
 144 566 250 611 349 611 c 0
 485 611 529 575 532 443 c 0
 534 365 517 172 534 101 c 0
 543 63 563 44 605 49 c 1
 616 10 l 1
 595 2 540 -28 482 -10 c 0
 438 4 429 50 423 109 c 1
 413 109 l 1
 425 198 428 399 414 457 c 0
 393 546 332 561 287 553 c 0
 229 542 205 507 174 474 c 1
 230 557 l 1
 209 512 192 469 186 401 c 1
 98 392 l 1x50
 92 459 95 539 95 539 c 1
EndSplineSet
Layer: 2
Layer: 3
EndChar

StartChar: si_Ta
Encoding: 40 3501 9
GlifName: si_T_a
Width: 940
VWidth: -11
Flags: W
HStem: -16 401<369 492> -16 42<541 675.685> 458 85<544.493 721.101>
VStem: 67 88<415.704 459.697> 303 54<420.36 485.729>
LayerCount: 4
Back
SplineSet
264 366 m 1
 276 389 280 410 279 428 c 0
 277 470 242.848371434 495.622579221 203 492 c 0
 159 488 129 445 125 411 c 1
 155 356 l 1
 141 332 118 320 96 321 c 0
 71 323 48 344 48 390 c 0
 48 460 104.987915524 552.189023161 212 551 c 0
 302 550 344 468 317 404 c 0
 302 368 317 392 304 375 c 1
 264 366 l 1
771 11 m 0
 889 14 938.502929688 137.25390625 925 258 c 0
 910.423828125 388.341796875 786 461 635 460 c 0
 530.997070312 459.311523438 449 443 342 367 c 1
 325 355 336 360 322 348 c 1
 225 269 176 231 86 89 c 1
 86 89 45 110 50 119 c 0
 120 233 204 315 302 406 c 1
 309 412 318 419 325 424 c 1
 426 507 539.997910809 560.321041636 669 561 c 0
 859 562 994 449 1008 281 c 0
 1022.12011719 111.560546875 911 -38 762 -38 c 0
 703 -38 671 -20 671 -20 c 1
 687 28 l 1
 687 28 716.98046875 9.626953125 771 11 c 0
126 172 m 1
 227 224 210 65 410 62 c 0
 542 60 608 124 610 195 c 0
 613 308 520 343 427 346 c 0
 345 349 284 319 251 301 c 1
 303 365 l 1
 316 369 389 394 451 393 c 0
 561 391 681 343 671 173 c 0
 665 68 598 -41 410 -41 c 0
 157 -41 173 192 114 134 c 1
 126 172 l 1
EndSplineSet
Fore
SplineSet
176 211 m 1x78
 136 113 202 76 315 68 c 4
 436 59 553 107 575 193 c 0
 588 243 557 305 460 315 c 0
 365 325 258 288 189 240 c 1
 227 278 l 1
 252 295 369 380 489 385 c 0xb8
 577 389 654 335 625 205 c 0
 593 64 492 -16 301 -16 c 4
 197 -16 125 30 126 105 c 0
 127 159 164 208 165 210 c 0
 176 211 l 1x78
20 93 m 1
 86 186 195 302 328 413 c 0
 396 470 539 542 675 543 c 0
 849 544 915 417 887 242 c 0
 863 93 714 -40 532 -16 c 5
 541 26 l 4x78
 673 7 777 93 802 196 c 0
 836 335 781 463 609 458 c 0
 452 453 319 346 319 346 c 1
 250 285 206 251 135 164 c 1
 51 68 l 1
 20 93 l 1
224 319 m 1
 258 347 303 380 303 442 c 24
 303 472 271 513 216 500 c 0
 184 492 156 464 155 438 c 1
 182 352 l 0
 166 329 129 319 109 324 c 0
 85 330 67 358 67 396 c 0
 67 461 139 532 235 546 c 0
 325 559 357 518 357 473 c 0
 357 406 301 369 280 339 c 0
 224 319 l 1
EndSplineSet
Layer: 2
SplineSet
247.826171875 365.756835938 m 5
 284.606445312 440.026367188 243.995117188 496.55859375 201.68359375 497.6015625 c 4
 158.612304688 498.662109375 133.166992188 465.461914062 128.880859375 431.381835938 c 5
 158.6171875 376.010742188 l 5
 144.875 352.084960938 121.26953125 339.463867188 99.6572265625 340.846679688 c 4
 73.9462890625 342.491210938 51.056640625 363.958007812 50.951171875 409.791015625 c 4
 50.7890625 480.055664062 104.263671875 565.857421875 216.0390625 558.985351562 c 4
 303.006835938 553.638671875 331.68359375 473.038085938 304.228515625 408.823242188 c 4
 289.037109375 373.291992188 300.887695312 391.560546875 287.81640625 374.985351562 c 5
 247.826171875 365.756835938 l 5
650.8046875 -22.5302734375 m 13
 664.133789062 34.111328125 l 4
 673.158203125 34.099609375 692.454101562 26.2783203125 721.043945312 26.2783203125 c 4
 828.709960938 26.2783203125 872.337890625 139.078125 871.305664062 238.608398438 c 4
 869.853515625 378.5703125 750.03125 462.880859375 620.04296875 464.584960938 c 4
 515.595703125 465.955078125 428.328125 437.892578125 342.674804688 382.830078125 c 5
 211.385742188 288.540039062 159.407226562 235.71875 56.5908203125 73.0078125 c 5
 56.5908203125 73.0078125 14.9287109375 94.48828125 20.189453125 103.76953125 c 4
 85.23828125 218.547851562 184.014648438 315.069335938 282.176757812 406.313476562 c 5
 289.81640625 412.305664062 297.509765625 418.155273438 305.248046875 423.856445312 c 5
 390.520507812 496.668945312 514.975585938 555.073242188 628.24609375 556.157226562 c 4
 798.30859375 557.784179688 958.811523438 460.306640625 962.137695312 271.93359375 c 4
 965.504882812 81.2705078125 854.120117188 -24.0751953125 724.120117188 -31.71484375 c 4
 683.104492188 -34.125 658.315429688 -22.5107421875 650.8046875 -22.5302734375 c 13
152.977539062 228.354492188 m 5
 140.852539062 101.243164062 257.12109375 60.1318359375 369.84765625 57.626953125 c 4
 532.9140625 54.0029296875 583.4296875 113.750976562 583.641601562 200.668945312 c 4
 583.879882812 299.25 495.337890625 339.16015625 402.147460938 343.477539062 c 4
 330.133789062 346.815429688 258.362304688 318.712890625 226.29296875 301.157226562 c 5
 283.71484375 365.244140625 l 5
 296.688476562 369.670898438 369.370117188 394.450195312 430.858398438 393.487304688 c 4
 541.220703125 391.759765625 681.171875 347.966796875 670.799804688 178.110351562 c 4
 664.412109375 73.5126953125 595.322265625 -40.947265625 356.517578125 -40.982421875 c 4
 205.581054688 -41.00390625 92.37890625 57.7041015625 120.677734375 189.90234375 c 5
 152.977539062 228.354492188 l 5
EndSplineSet
Layer: 3
EndChar

StartChar: si_Na
Encoding: 44 3505 10
GlifName: si_N_a
Width: 896
VWidth: -11
Flags: W
HStem: -1 101<166.63 405.775> 9 92<562 694.295> 345 74<388.917 508.027> 481 90<523.615 706.238>
VStem: 64 88<445.704 489.725> 300 54<421.411 515.858>
LayerCount: 4
Back
SplineSet
328 377 m 1x30
 340 400 344 421 343 439 c 0
 341 481 304.760742188 505.678710938 255 501 c 0
 220.934570312 497.796875 185 470 191 426 c 1
 231 371 l 1
 217 347 194.001953125 335.022460938 172 336 c 0
 127 338 107 369 107 415 c 0
 107 495 173.983398438 563.181640625 271 559 c 0
 353.926757812 555.42578125 403 480 376 416 c 0
 361 380 376 404 363 387 c 1
 328 377 l 1x30
104 257 m 0
 166 188 261 316 339 408 c 1
 349 417 349 407 361 415 c 1
 449 507 552 561 665 561 c 0
 835 561 982 448 980 255 c 0
 978 101 888.002929688 -40 704 -40 c 0
 630 -40 602 -11 602 -8 c 0
 627 42 l 0
 648 27 661.998046875 10.974609375 716 12 c 0
 833.073242188 14.2236328125 901 133 900 243 c 0
 899 381 784 468 624 464 c 0xae
 541.01953125 461.92578125 467 442 368 353 c 1
 355 350 l 1
 277 259 193 154 89 201 c 1
 104 257 l 0
102 274 m 1
 99 105 253.014203876 70.3790950543 354 68 c 0
 464.982216234 65.3854021864 592 119 592 221 c 0
 592 285 546 331 453 337 c 0
 386 341 330 319 288 292 c 1
 318 346 l 1
 331 350 383 387 465 387 c 0
 565 387 654 329 654 210 c 0
 654 105 582 -35 352 -35 c 0x4e
 175 -35 53 99 55 267 c 1
 102 274 l 1
EndSplineSet
Fore
SplineSet
231 349 m 1x3c
 265 377 300 420 300 472 c 0
 300 502 267.82807353 543.707018383 213 530 c 0
 181 522 153 494 152 468 c 1
 179 382 l 0
 163 359 126 349 106 354 c 0
 82 360 64 388 64 426 c 0
 64 491 135.981045528 562.130595465 232 576 c 0
 322 589 354 548 354 503 c 0
 354 436 298 399 277 369 c 0
 231 349 l 1x3c
65 221 m 1
 98 152 197 326 303 424 c 1
 310 430 311.924331017 421.076495942 319 428 c 0
 412 519 534.002188635 569.761443539 656 571 c 0
 853 573 924 404 874 252 c 0
 825.606619963 104.884124689 713 -11 552 9 c 5
 562 101 l 4x7c
 691.119140625 92.1767578125 790.794788162 142.243123065 819 231 c 0
 858 343.962962963 788.272727273 481 585 481 c 0
 433.709090909 481 320 375 320 375 c 1
 223 277 148 121 76 168 c 1
 52 174 52 208 65 221 c 1
62 246 m 1
 65 124.490322581 185.712191666 95.8082334449 282 100 c 0
 375.981443131 104.128725932 519.462653378 128.075767131 541 230 c 0
 555.732913729 294.359371345 514.021061836 342.565964605 441 345 c 0
 351 348 297 318 228 270 c 1
 212 280 l 1
 291 346 390 419 478 419 c 0
 562 419 616.520022439 352.892607287 595 250 c 0
 563 93.8902439024 445.994697846 -4.35519615066 275 -1 c 0xbc
 171 1.06211180124 68.2914481575 48.8523638576 37 165 c 0
 27 201 32 240 32 240 c 0
 62 246 l 1
EndSplineSet
Layer: 2
SplineSet
25.7060546875 83.3212890625 m 0
 135.70703125 297.014648438 354.685546875 541.3203125 592.747070312 550.064453125 c 0
 747.333007812 555.743164062 909.002929688 475.564453125 926.126953125 277.120117188 c 0
 938.224609375 136.918945312 853.490234375 -32.3037109375 702.463867188 -32.724609375 c 0
 667.083984375 -32.8232421875 650.168945312 -21.2685546875 650.168945312 -21.2685546875 c 1
 666.575195312 26.412109375 l 1
 666.575195312 26.412109375 674.873046875 18.8330078125 700.412109375 18.7900390625 c 0
 786.055664062 18.646484375 846.682617188 119.120117188 840.421875 228.4140625 c 0
 832.416015625 368.154296875 719.6328125 447.84765625 594.797851562 452.852539062 c 0
 505.783203125 456.421875 428.206054688 437.952148438 347.678710938 388.016601562 c 1
 216.390625 293.7265625 113.655273438 133.239257812 67.234375 52.5595703125 c 1
 67.234375 52.5595703125 20.8232421875 73.8359375 25.7060546875 83.3212890625 c 0
174.387695312 214.571289062 m 1
 144.741210938 169.486328125 171.624023438 68.28515625 262.05859375 67.9404296875 c 0
 301.037109375 67.7919921875 352.525390625 94.390625 353.318359375 189.596679688 c 1
 407.151367188 189.44921875 l 0
 408.671875 86.783203125 468.197265625 67.1904296875 503.025390625 67.9404296875 c 0
 558.4375 69.1337890625 592.747070312 124.158203125 592.747070312 184.834960938 c 0
 592.747070312 299.41796875 506.049804688 343.943359375 382.029296875 343.537109375 c 0
 320.25 343.3359375 284.387695312 323.899414062 252.317382812 306.34375 c 1
 309.739257812 369.91796875 l 1
 322.713867188 374.344726562 359.508789062 385.482421875 390.232421875 388.419921875 c 0
 474.729492188 396.5 660.935546875 373.965820312 660.935546875 167.916015625 c 0
 660.935546875 53.0576171875 605.965820312 -34.349609375 500.461914062 -34.7705078125 c 0
 386.36328125 -35.2236328125 383.567382812 53.5849609375 383.567382812 53.5849609375 c 1
 383.567382812 53.5849609375 362.000976562 -33.5771484375 259.495117188 -33.9677734375 c 0
 105.465820312 -34.5556640625 104.661132812 125.875 126.194335938 164.327148438 c 0
 174.387695312 214.571289062 l 1
256.931640625 381.197265625 m 1
 293.712890625 455.466796875 240.236328125 494.984375 187.717773438 492.534179688 c 0
 162.075195312 491.3359375 124.328125 470.6484375 120.041992188 436.568359375 c 1
 149.778320312 376.0703125 l 0
 128.487304688 339.00390625 93.47265625 333.344726562 66.7216796875 345.686523438 c 0
 66.7216796875 345.686523438 37.107421875 362.216796875 36.9853515625 414.977539062 c 0
 36.82421875 485.2421875 90.0283203125 553.598632812 186.692382812 553.91796875 c 0
 273.637695312 554.205078125 317.71875 503.859375 321.025390625 444.771484375 c 0
 323.184570312 406.189453125 302.303710938 391.620117188 289.231445312 375.044921875 c 1
 256.931640625 381.197265625 l 1
EndSplineSet
Layer: 3
EndChar

StartChar: anusvara
Encoding: 1 3458 11
GlifName: anusvara
Width: 588
VWidth: 0
Flags: W
HStem: -25 92<174.636 341.845>
LayerCount: 4
Back
Fore
SplineSet
121.96484375 225 m 0
 110.9140625 135 147.737304688 67.998046875 265.564453125 67 c 0
 355.517578125 66.23828125 430.118164062 143.999023438 440.841796875 224 c 4
 454.244140625 323.993164062 393.592773438 393 285.85546875 387 c 0
 215.483398438 383.081054688 133.383789062 318 121.96484375 225 c 0
53.158203125 194 m 0
 71.6982421875 345 201.731445312 443 322.731445312 443 c 0
 473.731445312 443 538.470703125 335 523.614257812 214 c 0
 508.756835938 93 407.268554688 -25 256.268554688 -25 c 0
 105.268554688 -25 38.3017578125 73 53.158203125 194 c 0
EndSplineSet
Layer: 2
Layer: 3
EndChar

StartChar: si_A
Encoding: 3 3461 13
GlifName: si_A_
Width: 716
VWidth: -17
Flags: HW
HStem: -57.5381 62.3555<230.025 443.494>
VStem: 395.197 51.5322<380.201 465.468>
AnchorPoint: "si_hal" 418.745 492 basechar 0
LayerCount: 4
Back
Fore
SplineSet
323.270507812 -37.5380859375 m 0
 112.938476562 -37.1875 39.3427734375 57.630859375 59.6123046875 177 c 0
 79.6494140625 295.000976562 177.537109375 364.422851562 316.362304688 383 c 0
 350.340820312 387.546875 398.423828125 381.401367188 415.197265625 378.52734375 c 1
 427.327148438 468.180664062 348.98046875 504.435546875 278.359375 497 c 1
 211.431640625 408 l 1
 165.799804688 411 142.342773438 448 155.763671875 484 c 0
 179.375976562 546 240.954101562 567 303.954101562 567 c 0
 375.954101562 567 443.04296875 527 446.729492188 443 c 0
 449.124023438 388.426757812 426.345703125 284 426.345703125 284 c 1
 319.545898438 302.869140625 133.489257812 322.513671875 103.313476562 189 c 0
 80.8369140625 91.240234375 167.2109375 44.236328125 334.926757812 44.8173828125 c 0
 456.947265625 45.240234375 535.11328125 80.912109375 602.213867188 118.599609375 c 1
 628.106445312 57 l 1
 549.418945312 -0.3515625 470.935546875 -37.7841796875 323.270507812 -37.5380859375 c 0
482.2890625 406.842773438 m 1
 490.848632812 463.158203125 488.05078125 518.805664062 561.077148438 558 c 1
 587.485351562 536.889648438 l 1
 580.235351562 481.823242188 708.2421875 455.326171875 699.73046875 386 c 0
 690.784179688 313.143554688 589.995117188 241.561523438 500.067382812 234 c 1
 495.978515625 274 l 1
 554.206054688 284 617.818359375 331.561523438 624.748046875 388 c 0
 630.641601562 436 560.272460938 468.649414062 564.692382812 507.856445312 c 1
 551.06640625 493.653320312 542.676757812 470 536.69921875 421.313476562 c 0
 455.922851562 -338 l 5
 415.922851562 -338 l 5
 482.2890625 406.842773438 l 1
430.409179688 371.448242188 m 1
 431.228515625 371.296875 432.053710938 371.146484375 432.888671875 371 c 1
 432.983398438 371.776367188 432.051757812 371.853515625 430.409179688 371.448242188 c 1
EndSplineSet
Layer: 2
Layer: 3
EndChar

StartChar: si_U
Encoding: 9 3467 19
GlifName: si_U_
Width: 695
VWidth: -17
Flags: HWO
LayerCount: 4
Back
Fore
SplineSet
93.828125 109 m 0
 67.21875 -12.498046875 140.416992188 -146.950195312 349.19140625 -159.380859375 c 0
 444.493164062 -165.055664062 540.499023438 -134.137695312 611.061523438 -79 c 1
 638.904296875 -121 l 5
 585.501953125 -165 491.149414062 -254.307617188 328.620117188 -259.19140625 c 0
 42.2548828125 -267.795898438 -28.4107302107 -75.5629135971 -3.8017578125 55 c 4
 42.9453125 303.016601562 312.453125 391 467.69921875 393 c 0
 529.799804688 393.799804688 564.961914062 387 593.348632812 382 c 1
 593.961914062 387 562.015625 363 561.629882812 368 c 1
 567.995117188 485 494.801757812 516 367.591796875 498 c 1
 301.891601562 419 l 1
 256.259765625 422 239.323242188 462.533203125 254.591796875 498 c 0
 276.9765625 550 341.4140625 578 424.4140625 578 c 0
 526.4140625 578 613.784179688 524 617.469726562 440 c 0
 619.865234375 385.426757812 601.577148438 295 601.577148438 295 c 1
 601.33203125 293 l 1
 412.015625 323 137.631835938 309.000976562 93.828125 109 c 0
EndSplineSet
Layer: 2
Layer: 3
EndChar

StartChar: si_E
Encoding: 15 3473 23
GlifName: si_E_
Width: 790
VWidth: -14
Flags: W
HStem: -58 110<210.574 477.51> 254 52<37.1211 92.8135 360.217 385.813> 418 62<241.95 329.286> 660 71<314.382 504.055>
LayerCount: 4
Back
SplineSet
166 641 m 1
 173 648 l 1
 197 645.692307692 210.110057236 660.148615767 233 642 c 0
 266.655462185 615.315789474 287.309259483 603.736393043 322 603 c 0
 390.853895268 601.53841317 440.014888651 628.69672912 513 630 c 1
 553 564 l 1
 484.640869682 591.764669918 417.590085091 529.051845151 288 539.301757812 c 0
 197.79326965 554.375870151 195.073619632 610.722344926 135 590 c 1
 166 641 l 1
406 262 m 1
 260 278 155.000457224 239.000021021 159 152 c 0
 161.939453125 88.0595703125 234.999022954 41.1953966836 375 42 c 0
 549 43 638 173 638 326 c 0
 638 507.186544343 534.449042852 654.40649119 332 648 c 0
 205.954101562 644.07421875 117 573 114 573 c 1
 81 613 l 1
 120 643.253012048 225.001113451 706.58985662 353 706 c 0
 582.878338279 705 710 537 710 321 c 0
 710 107 601.001951867 -56.4236398072 365 -58 c 0
 209 -59.0419921875 79.8490260023 2.05762892391 76 131 c 0
 72 265 235 325 357 318 c 1
 367 378 334 428 242 428 c 1
 216 347 l 1
 165 340 130.76031191 368.857746694 139 415 c 0
 149 471 207 490 254 490 c 0
 330 490 409.999457871 452.999979147 414 349 c 0
 415.383789062 313.026367188 406 262 406 262 c 1
10 316 m 1
 411 322 l 1
 406 264 l 1
 113 264 l 1
 9 252 l 1
 10 316 l 1
EndSplineSet
Fore
SplineSet
327.846679688 671.124023438 m 9
 400.120117188 680 l 1
 397.219726562 663.255859375 416.758789062 610.692382812 444.174804688 599 c 0
 520.696289062 566.365234375 569.971679688 631.057617188 624.209960938 583 c 9
 634.158203125 550 l 1
 565.333984375 568.92578125 505.690429688 506.502929688 414.353515625 535.301757812 c 0
 341.354492188 558.318359375 370.952148438 656.490234375 327.846679688 671.124023438 c 9
6.1982421875 306 m 1
 397.935546875 312 l 1
 385.813476562 254 l 1
 92.8134765625 254 l 1
 -2.6591796875 242 l 1
 6.1982421875 306 l 1
396.177734375 668.212890625 m 0
 349.13671875 667.137695312 347.836914062 671.022460938 304.6640625 660 c 1
 314.381835938 731 l 1
 652.638671875 750.670898438 761.45703125 511.708984375 735.584960938 301 c 0
 709.30859375 87 590.688476562 -51.4921875 341.504882812 -58 c 4
 151.23046875 -63.1357421875 58.26953125 22.064453125 67.7119140625 131 c 0
 78.5478515625 257.80859375 237.801757812 294.625976562 360.216796875 298 c 1
 370.0390625 378 333.950195312 418 241.950195312 418 c 1
 206.004882812 337 l 1
 154.145507812 330 123.44921875 358.857421875 137.354492188 405 c 0
 154.23046875 461 214.563476562 480 261.563476562 480 c 0
 337.563476562 480 413.01953125 443 404.250976562 339 c 0
 401.217773438 303.026367188 385.568359375 252 385.568359375 252 c 1
 241.354492188 266.545898438 139.366210938 231.108398438 133.290039062 152 c 0
 128.37890625 88.0595703125 228.891601562 51.02734375 369.01171875 52 c 0
 518.588867188 53 655.413085938 153 676.654296875 326 c 0
 701.82421875 530.9921875 539.6171875 671.586914062 396.177734375 668.212890625 c 0
EndSplineSet
Layer: 2
Layer: 3
EndChar

StartChar: si_Kha
Encoding: 22 3483 29
GlifName: si_K_ha
Width: 835
VWidth: -24
Flags: HW
HStem: -52.7871 49.4873<153.918 257.565> -51 100.73<460.277 574.816> -29.3828 11.2891<185.107 224.231> 110.939 46.666<187.721 273.249> 343.591 101.211<240.545 392.994> 659 51<316.896 545.323>
LayerCount: 4
Back
SplineSet
290.736328125 343.590820312 m 4x5f80
 195.237304688 343.1484375 129.991210938 249.772460938 130 166 c 4
 130.012695312 42.544921875 183.228515625 -3.1220703125 255 -3.2998046875 c 4x9f80
 290.143554688 -3.38671875 308.22265625 31.3310546875 308.409179688 57.7451171875 c 4
 308.599609375 84.7783203125 294.728515625 111.390625 252.8828125 110.939453125 c 4
 233.487304688 110.73046875 202.7734375 90.455078125 203.977539062 55.763671875 c 4
 204.986328125 26.703125 224.446289062 -11.9931640625 272.888671875 -18.09375 c 4
 265.706054688 -29.3828125 l 4x3f80
 207.858398438 -27.16796875 159.577148438 16.626953125 158.389648438 57.98828125 c 4
 156.850585938 111.6171875 202.317382812 157.215820312 257.249023438 157.60546875 c 4
 305.462890625 157.947265625 354.072265625 127.767578125 355.776367188 65.1171875 c 4
 357.46875 9.435546875 325.696289062 -53.693359375 241 -52.787109375 c 4x9f80
 124.6171875 -51.34765625 74.3466796875 51.4404296875 77.5234375 157.9375 c 4
 82.298828125 318.005859375 181.123046875 443.0234375 326.396484375 444.801757812 c 4
 421.767578125 445.96875 548.081054688 365.548828125 540.779296875 204 c 5
 536.680664062 201.66796875 532.576171875 192.340820312 528.501953125 190 c 5
 496.125 182.859375 467.134765625 155.58984375 467.287109375 114 c 4
 467.38671875 86.8173828125 487.865234375 51.3623046875 549 49.73046875 c 4
 655.110351562 46.8974609375 705.552734375 244.466796875 693 377 c 4
 681.94921875 493.670898438 601.075195312 656.302734375 381 659 c 4
 244.995117188 660.666992188 173 570 170 570 c 5
 135 622 l 4
 135 622 221.178710938 702.440429688 368 710 c 4
 632.89453125 723.638671875 798.775390625 539 789 302 c 4
 781.198242188 93.185546875 703.6796875 -51.9990234375 552 -52 c 4
 449.58984375 -52.0009765625 401.55859375 18.7392578125 401.739257812 82 c 4
 401.946289062 154.42578125 442.963867188 207.8515625 501 231 c 5
 504.359375 234.1328125 476.020507812 203.118164062 479.032226562 206 c 5
 460.500976562 285.725585938 367.551757812 343.946289062 290.736328125 343.590820312 c 4x5f80
EndSplineSet
Fore
SplineSet
315.057617188 343.590820312 m 0x5c
 213.5625 343.143554688 124.020507812 269.772460938 112.515625 176 c 4
 97.369140625 52.544921875 160.720703125 -3.1220703125 226.728515625 -3.2998046875 c 0x9c
 261.861328125 -3.38671875 284.203125 31.3310546875 287.6328125 57.7451171875 c 0
 291.142578125 84.7783203125 280.5390625 111.390625 238.637695312 110.939453125 c 0
 219.216796875 110.73046875 186.013671875 90.455078125 182.958007812 55.763671875 c 0
 180.3984375 26.703125 195.107421875 -11.9931640625 242.80078125 -18.09375 c 0
 234.231445312 -29.3828125 l 0x3c
 176.65625 -27.16796875 133.751953125 16.626953125 137.643554688 57.98828125 c 0
 142.688476562 111.6171875 193.754882812 157.215820312 248.734375 157.60546875 c 0
 296.990234375 157.947265625 341.893554688 127.767578125 335.905273438 65.1171875 c 0
 330.760742188 9.435546875 291.237304688 -53.693359375 206.65234375 -52.787109375 c 0x9c
 90.4462890625 -51.34765625 58.8739282865 50.6889330079 69.048828125 157.9375 c 0
 83.2861328125 308.005859375 193.524414062 443.33203125 333.14453125 444.801757812 c 0
 461.173828125 445.96875 518.276308556 342.075365211 510.416015625 224 c 0
 505.163085938 145.091796875 473.15625 89.2568359375 458.698242188 58 c 1
 453.504882812 78.6162109375 487.271484375 138.49609375 492 137.858398438 c 1
 477.99609375 104.353515625 488.833310166 53.8782776134 553.239257812 56.73046875 c 0
 648.573478745 60.9523058613 716.703125 234.466796875 711.422851562 377 c 0
 707.10154644 493.647266112 676.739257812 656.302734375 464.048828125 659 c 0
 321.802734375 660.666992188 205.262695312 560 202.12109375 560 c 1
 173.505859375 622 l 0
 173.505859375 622 273.259765625 702.440429688 427.310546875 710 c 0
 687.587890625 723.638671875 806.857421875 529 788.21484375 302 c 0
 770.905519994 91.2342750897 639.859375 -71.310546875 527.87109375 -61 c 0
 478.882800087 -56.4897414935 456 -24 451 36.5849609375 c 1
 444.225585938 23.9912109375 390.224318133 -69.9482156627 376.602539062 -93.9130859375 c 1
 325.831054688 -83 l 1
 381.153320312 5.1328125 434.991210938 91.1259765625 446.458984375 196 c 0
 455.430664062 278.047851562 395.80078125 343.946289062 315.057617188 343.590820312 c 0x5c
EndSplineSet
Layer: 2
Layer: 3
EndChar

StartChar: si_Ga
Encoding: 23 3484 30
GlifName: si_G_a
Width: 843
VWidth: -24
Flags: HW
HStem: -17.1387 114.467<514.452 602.142> 463.533 123.07<555.469 675.398> 471.88 110.12<272.674 338.518>
AnchorPoint: "si_hal" 660 545 basechar 0
LayerCount: 4
Back
Fore
SplineSet
729.623046875 222.600585938 m 0xc0
 790.352539062 369.83203125 729.6171875 485.984375 598.9375 483.533203125 c 0
 525.455078125 482.155273438 430.170898438 453.77734375 368.877929688 298.823242188 c 1
 331.610351562 288.01171875 l 1
 370.081054688 457.799804688 525.827148438 576.603515625 645.6796875 576.603515625 c 0
 807.846679688 576.603515625 820.426507828 397.349491695 798.870117188 301.375 c 0
 759.805664062 127.450195312 663.163085938 -15.6162109375 472.682617188 -17.138671875 c 1
 494.452148438 67.328125 l 1
 584.994140625 59.9912109375 697.483398438 144.681640625 729.623046875 222.600585938 c 0xc0
92.974609375 281.841796875 m 0
 68.478515625 195.09375 114.748046875 105.23828125 184.783203125 85.955078125 c 0
 300.169921875 54.185546875 396.473632812 142.3359375 408 204 c 0
 411.797851562 224.172851562 425.954101562 287 332 287 c 1
 380 335 l 1
 436.91015625 331 456.94140625 290.21484375 447 206 c 0
 433.631835938 93.953125 348.163085938 -11.0048828125 205.598632812 -11.0048828125 c 0
 78.97265625 -11.0048828125 2.3779296875 107.635742188 43.9951171875 265.564453125 c 0
 93.3525390625 452.865234375 227.685546875 552 337 572 c 0
 350.879882812 481.879882812 l 0xa0
 242.752929688 461.879882812 128.556640625 407.848632812 92.974609375 281.841796875 c 0
EndSplineSet
Layer: 2
Layer: 3
EndChar

StartChar: si_Da
Encoding: 42 3503 46
GlifName: si_D_a
Width: 569
VWidth: -17
Flags: HW
AnchorPoint: "si_hal" 485.231 493 basechar 0
LayerCount: 4
Back
SplineSet
182 199 m 0
 172 72 299 -23 529 46 c 1
 545 2 l 1
 417 -30 376 -115 376 -162 c 0
 376 -214 412 -267 496 -262 c 0
 522 -260 557 -247 584 -226 c 1
 601 -262 l 1
 551 -299 504 -319 447 -319 c 0
 363 -318 292 -264 291 -186 c 0
 290 -121 340 -34 469 5 c 1
 476 9 464 -23 473 -19 c 1
 222 -78 79 19 81 165 c 0
 83 313 232 392 377 394 c 0
 439 395 459 387 488 382 c 1
 488 387 449 363 448 368 c 1
 460 475 393 506 318 498 c 1
 262 409 l 1
 216 412 196 452 205 488 c 0
 221 550 282 568 345 568 c 0
 417 568 505 523 513 444 c 0
 519 389 502 335 502 335 c 1
 502 335 l 1
 502 333 l 1
 309 363 191 309 182 199 c 0
EndSplineSet
Fore
SplineSet
92.1328125 219 m 0
 63.5380859375 89.53515625 266.708007812 41.9150390625 512.924804688 87 c 1
 523.522460938 43 l 1
 386.40234375 -8.6552734375 341.676757812 -73.375 333.247070312 -131 c 0
 316.862304688 -243 412.961914062 -290.381835938 495.828125 -294 c 0
 484.197265625 -328 l 0
 327.079101562 -346.34765625 245.596679688 -247.131835938 253.299804688 -175 c 0
 261.913085938 -96.3876953125 326.798828125 -11.16796875 466.663085938 36 c 1
 473.94921875 38.3330078125 439.657226562 19.6669921875 448.944335938 22 c 1
 181.595703125 -60.2666015625 15.2333984375 25.6630859375 36.9580078125 185 c 0
 58.05859375 339.759765625 244.926757812 406.569335938 391.076171875 404 c 0
 449.973632812 402.96484375 464.444335938 397 492.830078125 392 c 1
 493.444335938 397 479.8515625 373 480.111328125 378 c 1
 506.848632812 485 410.827148438 506 324.845703125 498 c 1
 257.916992188 409 l 1
 212.286132812 412 196.767578125 452.114257812 210.6171875 488 c 0
 232.616210938 545 298.80859375 571 361.80859375 571 c 0
 433.80859375 571 516.528320312 528 520.21484375 444 c 0
 523.939453125 359.155273438 511.182617188 350.987304688 500.813476562 303 c 1
 293.91015625 344.4921875 115.858398438 326.422851562 92.1328125 219 c 0
EndSplineSet
Layer: 2
Layer: 3
EndChar

StartChar: si_Dha
Encoding: 43 3504 47
GlifName: si_D_ha
Width: 756
VWidth: -14
Flags: W
HStem: -15 95<133.696 263.173 389.684 507.397> 629 88<342.317 523.747>
LayerCount: 4
Back
Fore
SplineSet
375.716796875 324 m 1
 351.189453125 341 307.884765625 350.708984375 274.680664062 349 c 0
 194.098632812 344.8515625 108.854492188 281.791015625 97.6669921875 197 c 0
 88.4111328125 126.852539062 132.692382812 80.3115234375 200.369140625 80 c 0
 260.977539062 79.720703125 312.735351562 129.827148438 324.421875 225 c 1
 331.428710938 225.030273438 351.30859375 230.259765625 358.0625 230.6796875 c 1
 346.115234375 133.375 387.012695312 80.2177734375 440.89453125 80 c 0
 550.00390625 79.5595703125 638.61328125 244.752929688 648.172851562 378 c 0
 659.308319274 533.212880972 560.9453125 626.1953125 424.288085938 629 c 0
 288.625 631.784179688 189.728515625 534 186.728515625 534 c 1
 160.991210938 555 l 0
 214.670898438 623.076171875 318.284850701 717.794055894 454.672851562 717 c 0
 615.53125 716.063476562 706.50390625 589.208007812 688.559570312 352 c 0
 676.25390625 189.327148438 599.235351562 -12.1455078125 426.774414062 -15 c 4
 337.930664062 -16.470703125 297.642578125 22.4111328125 306.512695312 101 c 1
 302.912109375 92.7822265625 339.426757812 85.2041015625 336 78.2294921875 c 1
 311.072265625 27.4921875 269.306640625 -15.302734375 189.774414062 -15 c 4
 112.896484375 -14.70703125 36.9921875 17.8671875 51.509765625 165 c 0
 66.7998046875 319.956054688 187.166992188 424.916015625 298.57421875 428 c 0
 370.8203125 430 395.241210938 409 395.241210938 409 c 1
 375.716796875 324 l 1
EndSplineSet
Layer: 2
Layer: 3
EndChar

StartChar: si_Ba
Encoding: 48 3510 50
GlifName: si_B_a
Width: 736
VWidth: -24
Flags: HMW
LayerCount: 4
Back
SplineSet
201.736328125 332.590820312 m 4
 118.364257812 327.54296875 46.9921875 254.524414062 47 146 c 4
 47.0087890625 37.12890625 94.228515625 -3.1220703125 166 -3.2998046875 c 4
 201.143554688 -3.38671875 219.22265625 31.3310546875 219.409179688 57.7451171875 c 4
 219.599609375 84.7783203125 205.728515625 111.390625 163.8828125 110.939453125 c 4
 144.487304688 110.73046875 113.7734375 90.455078125 114.977539062 55.763671875 c 4
 115.986328125 26.703125 135.446289062 -11.9931640625 183.888671875 -18.09375 c 4
 176.706054688 -29.3828125 l 4
 118.858398438 -27.16796875 70.576171875 16.626953125 69.3896484375 57.98828125 c 4
 67.8505859375 111.6171875 113.317382812 157.19921875 168.249023438 157.60546875 c 4
 217.930664062 157.97265625 267.541992188 125.495117188 269.776367188 58.1171875 c 4
 271.512695312 5.7412109375 238.907226562 -53.8623046875 152 -52.787109375 c 4
 35.6171875 -51.34765625 -14.7548828125 51.443359375 -11.4765625 157.9375 c 4
 -6.892578125 306.845703125 87.958984375 423.237304688 227.396484375 424.801757812 c 4
 322.767578125 425.872070312 449.081054688 352.130859375 441.779296875 204 c 5
 437.680664062 201.66796875 433.576171875 192.340820312 429.501953125 190 c 5
 397.125 182.859375 368.134765625 155.58984375 368.287109375 114 c 4
 368.38671875 86.8173828125 388.865234375 51.3623046875 450 49.73046875 c 4
 556.110351562 46.8974609375 606.552734375 244.466796875 594 377 c 4
 582.94921875 490.744140625 522.077148438 646.55078125 302 649 c 4
 155.995117188 650.536132812 84 567 81 567 c 5
 38 620 l 4
 38 620 132.178710938 702.440429688 279 710 c 4
 543.89453125 723.638671875 698.856445312 539.036132812 690 302 c 4
 682.198242188 93.185546875 604.6796875 -51.9990234375 453 -52 c 4
 350.58984375 -52.0009765625 302.55859375 18.7392578125 302.739257812 82 c 4
 302.946289062 154.42578125 343.963867188 207.8515625 402 231 c 5
 402.30078125 234.1328125 399.762695312 203.118164062 400.032226562 206 c 5
 356.415039062 306.953125 292.203125 338.068359375 201.736328125 332.590820312 c 4
EndSplineSet
Fore
SplineSet
241.736328125 368.590820312 m 0
 158.364257812 363.54296875 83.9921875 274.524414062 74 206 c 0
 58.291015625 98.2685546875 104.228515625 66.8779296875 176 66.7001953125 c 0
 211.143554688 66.61328125 229.22265625 101.331054688 229.409179688 127.745117188 c 0
 229.599609375 154.778320312 215.728515625 181.390625 173.8828125 180.939453125 c 0
 154.487304688 180.73046875 123.7734375 160.455078125 124.977539062 125.763671875 c 0
 125.986328125 96.703125 145.446289062 58.0068359375 193.888671875 51.90625 c 0
 186.706054688 40.6171875 l 0
 128.858398438 42.83203125 90.576171875 86.626953125 89.3896484375 127.98828125 c 0
 87.8505859375 181.6171875 143.317382812 237.19921875 208.249023438 227.60546875 c 0
 257.3984375 220.34375 277.541992188 165.495117188 269.776367188 98.1171875 c 0
 263.776367188 46.0576171875 198.703125 -25.3759765625 122 -12.787109375 c 0
 36.6298828125 1.2236328125 21.16796875 92.8154296875 38.5234375 197.9375 c 0
 63.107421875 346.845703125 188.557617188 457.801757812 327.396484375 444.801757812 c 0
 422.767578125 435.872070312 489.081054688 362.130859375 461.779296875 224 c 1
 457.680664062 221.66796875 453.576171875 212.340820312 449.501953125 210 c 1
 397.125 202.859375 362.681640625 168.138671875 358.287109375 144 c 0
 349.655725803 96.5887690805 368.859375 78.134765625 410 76.73046875 c 0
 540.805664062 72.265625 654.413085938 286.048828125 644 437 c 0
 633.899414062 583.426757812 487.846679688 646.4609375 364 631 c 0
 279.264324895 620.421654419 221.580078125 586.758789062 187 550 c 1
 153 570 l 0
 153 570 252.25390625 711.100585938 409 720 c 0
 633.9453125 732.771484375 698.856445312 579.036132812 690 342 c 0
 682.198242188 133.185546875 564.6796875 -11.9990234375 413 -12 c 0
 300.58984375 -12.0009765625 282.529296875 68.7392578125 302.739257812 132 c 0
 321.736328125 191.46484375 363.963867188 227.8515625 422 251 c 1
 422.30078125 254.1328125 419.762695312 223.118164062 420.032226562 226 c 1
 386.415039062 336.953125 332.203125 374.068359375 241.736328125 368.590820312 c 0
EndSplineSet
Layer: 2
Layer: 3
EndChar

StartChar: si_Ma
Encoding: 50 3512 52
GlifName: si_M_a
Width: 705
VWidth: -14
Flags: HMW
LayerCount: 4
Back
SplineSet
216 318 m 4
 216 362 221.049804688 407.845703125 185 407 c 4
 133.951171875 405.802734375 102.100585938 334.032226562 107 262 c 4
 115.005942822 144.294927551 228.005739432 56.7358077964 400 60 c 4
 566.975585938 63.1689453125 648.875976562 189.346679688 659 314 c 4
 675 511 562 652 365 655 c 4
 238.999023438 656.918945312 138 581 135 581 c 5
 116 624 l 4
 116 624 230.998046875 706.665039062 378 706 c 4
 599 705 736 549 726 312 c 4
 717.189453125 103.185546875 607 -55 376 -55 c 4
 143 -55 50.5244140625 92.1689453125 48 238 c 4
 45.66015625 373.161132812 106.9375 454.219726562 188 456 c 4
 247.59765625 457.30859375 265.819335938 410.991210938 265.819335938 350 c 4
 265.819335938 250 320.909179688 219.501953125 394 218 c 4
 479.239257812 216.248046875 509 284 509 329 c 4
 509 362.241210938 490.005859375 435.412109375 411 436 c 4
 372.19921875 436.2890625 350.369140625 410.014648438 350 387 c 4
 349.565429688 359.922851562 365 337 398 335.561523438 c 4
 456.053710938 333.03125 463.008789062 399.986328125 450 429.561523438 c 5
 489 418.561523438 l 5
 495.25 365.91796875 477.426757812 289.571289062 396 291 c 4
 350.923828125 291.791015625 304.796643992 319.097679063 304 378.856445312 c 4
 303.331054688 429.036132812 338 480 416 480 c 4
 495 480 559 410 560 334 c 4
 560.650390625 284.58203125 529.993164062 162.740234375 393 161 c 4
 277.6796875 159.53515625 216 232.529296875 216 318 c 4
EndSplineSet
Fore
SplineSet
200.072265625 238 m 0
 187.932617188 278.534179688 193.145507812 327.750976562 166 327 c 0
 120.905273438 325.331054688 105.974609375 273.197265625 106.8984375 227 c 0
 108.381835938 152.830078125 211.453125 101.043945312 320.076171875 118 c 0
 458.336914062 139.58203125 582.321289062 256.474609375 611.315429688 394 c 0
 641.59375 528.32421875 538.944335938 644.103515625 373.625 632 c 0
 248.306640625 622.825195312 170.973632812 543 167.556640625 543 c 1
 137.46875 577 l 0
 137.46875 577 269.598632812 711.46484375 398.39453125 723 c 0
 630.305288636 743.770279605 688.96484375 578.932617188 653.158203125 372 c 0
 620.663085938 179.473632812 485.755859375 10.7744140625 297.60546875 1 c 4
 98.5478515625 -9.3408203125 45.55859375 108.3828125 62.44140625 224 c 0
 75.765625 315.249023438 126.702148438 413.7578125 196.927734375 416 c 0
 244.388671875 417.30859375 281.917796728 379.668868191 265.732421875 310 c 0
 255.313476562 265.15234375 270.76171875 219.309570312 331.161132812 238 c 0
 389.111328125 255.932617188 454.841796875 315.951171875 463.245117188 369 c 0
 470.891601562 414.241210938 459.711914062 475.438476562 375.611328125 476 c 0
 337.481445312 476.254882812 322.874023438 450.012695312 319.471679688 426 c 0
 316.643554688 406.029296875 314.833984375 379.251953125 353.770507812 379.561523438 c 0
 402.455078125 379.948242188 421.37890625 445.357421875 394.557617188 485.561523438 c 1
 435.20703125 474.561523438 l 1
 456.168945312 429.854492188 418.029296875 340.515625 344.158203125 342 c 0
 304.081054688 342.805664062 275.743164062 361.78515625 281.840820312 420.856445312 c 0
 285.368164062 455.036132812 317.699907167 518.09155854 404.786132812 520 c 0
 470.270688714 521.435054057 528.59765625 469.053710938 508.859375 374 c 0
 495.96320931 311.895889202 440.4140625 234.296875 350.389648438 201 c 0
 282.52395187 175.898857838 214.256835938 190.63671875 200.072265625 238 c 0
EndSplineSet
Layer: 2
SplineSet
185 418 m 5
 143.951171875 386.802734375 119.327148438 320.063476562 122 258 c 4
 127.50390625 130.204101562 246.995117188 60.369140625 380 60 c 4
 574.99609375 59.458984375 658.291992188 192.06640625 664 317 c 4
 673 514 567.998073659 663.87606425 371 667 c 4
 249.99937085 668.918791307 156 595 153 595 c 5
 135 621 l 4
 135 621 239.998046875 706.665039062 387 706 c 4
 608 705 746 549 736 312 c 4
 727.189453125 103.185546875 604 -59 383 -59 c 4
 160 -59 60.4697265625 63.16796875 58 209 c 4
 55.66015625 347.161132812 116.9375 412.219726562 170 451 c 4
 185 450.357449652 l 5
 200.462890625 436 l 5
 197.671875 339.133789062 244.944335938 230.7109375 378 230 c 4
 473.00390625 229.4921875 497 298 497 343 c 4
 497 396.241210938 452.006835938 441.466796875 389 442 c 4
 346.19921875 442.362304688 325.262695312 421.0390625 325 396 c 4
 324.715820312 368.926757812 341 353 370 351.561523438 c 4
 428.037109375 348.682617188 415.008789062 415.986328125 416 445.561523438 c 5
 416.514648438 440.146484375 454.958984375 443.584960938 443 435.561523438 c 5
 459.25 412.91796875 457.431640625 308.831054688 366 310 c 4
 310.922851562 310.704101562 284.73828125 346.096679688 284 385.856445312 c 4
 282.995117188 440.03125 328 481 391 481 c 4
 461 481 542 438 540 334 c 4
 539.049804688 284.586914062 504 184 371 184 c 4
 240.788085938 184 156.149414062 277.543945312 164 419 c 5
 185 418 l 5
EndSplineSet
Layer: 3
EndChar

StartChar: si_Ya
Encoding: 52 3514 54
GlifName: si_Y_a
Width: 832
VWidth: -24
Flags: W
HStem: 378 77<244.297 404.482> 503 67<589.365 709.076>
VStem: 726 49<407.17 483.648>
AnchorPoint: "si_hal" 706 519 basechar 0
LayerCount: 4
Back
SplineSet
528 363 m 1
 516 381 l 1
 612 407 785 371 785 186 c 0
 785 64 704 -35 579 -35 c 0
 454 -35 412 61 397 126 c 1
 395 123 444 129 442 126 c 1
 415 25 352 -34 251 -34 c 0
 115 -35 64 65 65 164 c 0
 66 348 191 412 288 412 c 0
 314 412 342 409 366 399 c 1
 354 349 l 1
 327 354 304 364 273 361 c 0
 213 355 136 327 136 194 c 0
 136 114 192 68 260 69 c 0
 320 70 396 91 396 215 c 1
 454 215 l 1
 450 91 518 64 588 64 c 0
 682 64 714 129 715 195 c 0
 716 281 639 367 472 332 c 1
 467 351 463 368 463 388 c 0
 461 500 543 557 617 557 c 0
 684 557 751 522 751 442 c 0
 751 346 668 320 668 320 c 1
 652 327 l 1
 652 327 690 381 691 430 c 0
 691 468 672 500 613 501 c 0
 567 502 529 473 524 421 c 0
 520 375 534 347 534 347 c 1
 528 363 l 1
EndSplineSet
Fore
SplineSet
532 379 m 1
 496 336 l 1
 486 479 571 570 664 570 c 0
 730 570 774.205078125 531.002929688 775 473 c 0
 776 400 710 369 683 353 c 1
 649 380 l 1
 707 399 726 419.984375 726 452 c 0
 726 472 696.341796875 503.766601562 645 503 c 0
 578 502 530 451 532 379 c 1
522 377 m 1
 612.452148438 432.8671875 785 395.21875 765 209 c 0
 748.995117188 73.759765625 665.852539062 -22 541 -22 c 0
 405.021484375 -22 378.782226562 84 397 149 c 1
 395 146 430 162 428 159 c 1
 420.239257812 78 332.188476562 -20.009765625 214 -21 c 0
 68.06640625 -22.22265625 36.4279071432 98.1379745908 65 227 c 0
 89.5978369127 337.93786868 206.024414062 451.626953125 338 455 c 0
 364.002929688 455.915039062 391 454 415 444 c 1
 406 368 l 1
 373.5 376 348.5 381 306 378 c 0
 234.080078125 374.338867188 131.043060303 329.84375 114 240 c 0
 98.0857824901 153.620117188 134.827943798 81.6940985603 220 72 c 0
 304.641440713 62.3662949429 379.333007812 125.412109375 410 234 c 1
 448 238 l 1
 438 134.120117188 458.319335938 77.140625 538 70 c 0
 649.59375 60 723.763671875 122.780273438 725 208 c 0
 726.247624704 293.998396331 635.0859375 358.774414062 495 336 c 1
 522 377 l 1
EndSplineSet
Layer: 2
Layer: 3
EndChar

StartChar: si_La
Encoding: 54 3517 55
GlifName: si_L_a
Width: 716
VWidth: -5
Flags: HW
HStem: 77 91<402.799 540.68> 294 54<258.925 468.295>
AnchorPoint: "si_hal" 536.553 526 basechar 0
LayerCount: 4
Back
SplineSet
295 348 m 1
 611 348 l 1
 611 294 l 1
 295 294 l 1
 295 348 l 1
610 295 m 1
 529 295 507 262 507 229 c 0
 508 188 565 167 615 168 c 0
 698 170 741 225 741 300 c 0
 741 399 642 507 477 508 c 0
 294 509 177 357 173 165 c 0
 169 -45 280 -191 481 -193 c 0
 600.998046875 -194.194335938 706 -132 752 -83 c 0
 786 -122 l 0
 747 -174 613.999023438 -262.51171875 460 -262 c 0
 159 -261 46.328125 -82.7841796875 57 144 c 0
 69 399 248 564 481 564 c 0
 695 564 809 432 809 306 c 0
 809 162 722 77 602 77 c 0
 499 77 447 150 446 213 c 0
 445 273 488 323 528 327 c 1
 610 295 l 1
EndSplineSet
Fore
SplineSet
258.924804688 348 m 1
 347.051757812 343.596679688 386.048828125 346.290039062 474.924804688 348 c 1
 468.294921875 294 l 1
 252.294921875 294 l 1
 258.924804688 348 l 1
467.41796875 295 m 1
 395.126953125 295 380.366210938 262 377.541992188 239 c 0
 372.505859375 197.98828125 417.892578125 166.630859375 488.051757812 168 c 0
 573.890743902 169.675128523 639.823242188 225 649.03125 300 c 0
 661.1875 399 570.781146793 529.49097846 404.5703125 498 c 0
 193.221679688 457.95703125 123.586914062 283.80078125 113.227539062 183 c 4
 98.3056640625 37.8076171875 146.59765625 -101.810546875 292.2890625 -121 c 0
 416.521484375 -137.36328125 547.006835938 -80 611.77734375 -13 c 0
 639.760742188 -42 l 0
 574.375976562 -124 438.016601562 -195.380859375 297.553710938 -194 c 4
 68.2213392696 -191.745484562 -20.1007861019 -46.135758994 41.6494140625 174 c 0
 101.958984375 389 260.0390625 544.102539062 443.446289062 574 c 0
 638.752929688 605.836914062 712.01171875 452 696.540039062 326 c 0
 678.859375 182 574.245117188 77 442.650390625 77 c 0
 339.650390625 77 296.6640625 150.000976562 303.349609375 213 c 0
 309.716796875 273 358.85546875 323 399.346679688 327 c 1
 467.41796875 295 l 1
EndSplineSet
Layer: 2
Layer: 3
EndChar

StartChar: si_Ssa
Encoding: 57 3522 57
GlifName: si_S_sa
Width: 776
VWidth: -24
Flags: W
HStem: -59 104<220.017 494.189> 94 44<287.373 447.197> 246 35<302.029 446.047> 494 62<538.953 655.558>
LayerCount: 4
Back
Fore
SplineSet
514.646484375 352 m 1
 462.313476562 333 l 1
 457.383789062 358 452.470703125 375 457.627929688 417 c 0
 469.1875 503 546.6953125 556 617.6953125 556 c 0
 690.6953125 556 736.678710938 507 726.85546875 427 c 0
 718.505859375 359 625.3671875 309 625.3671875 309 c 1
 591.454101562 326 l 1
 628.100585938 347.129882812 666.61328125 377.10546875 671.627929688 417 c 0
 677.41015625 463 647.08203125 494 598.08203125 494 c 0
 551.08203125 494 501.924804688 452 496.645507812 409 c 0
 490.260742188 357 514.646484375 352 514.646484375 352 c 1
114.088867188 209 m 0
 102.65234375 124 177.952148438 45 362.952148438 45 c 0
 537.952148438 45 648.47265625 127.008789062 660.948242188 216 c 0
 675.248046875 318.00390625 561.155273438 348 462.313476562 333 c 1
 487.225585938 373 l 1
 635.786132812 402 750.068359375 331 729.124023438 193 c 0
 703.987304688 29 526.182617188 -59 345.182617188 -59 c 0
 151.182617188 -59 11.478515625 33 31.5283203125 180 c 0
 53.05078125 339 225.803710938 394 332.576171875 384 c 1
 303.787109375 345 l 1
 313.243164062 365 329.235351562 386.33203125 328.381835938 415 c 0
 326.626953125 474 270.432617188 505 200.590820312 490 c 0
 236.169921875 511 l 1
 168.645507812 409 l 1
 127.890625 411 104.5625 436.013671875 110.2578125 471 c 0
 118.397460938 521 179.817382812 557 239.817382812 557 c 0
 309.817382812 557 376.90625 517 369.329101562 439 c 0
 365.786132812 402 355.856445312 370 342.313476562 333 c 1
 220.524414062 351 124.666015625 287 114.088867188 209 c 0
652.0859375 323 m 17
 555.424804688 270.456054688 517.784179688 251.149414062 393.631835938 246 c 0
 351.40625 244.25 281.520507812 241.991210938 273.755859375 190 c 0
 269.840820312 163.78515625 303.74609375 137.823242188 370.37109375 138 c 0
 418.7421875 138.127929688 473.418945312 161.149414062 478.513671875 202 c 4
 482.630859375 235.018554688 455.677734375 252.201171875 444.350585938 260 c 1
 492.034179688 290 l 1
 489.029296875 268.418945312 535.241210938 261.372070312 528.229492188 195 c 0
 522.581054688 141.533203125 460.0625 95.91015625 364.96875 94 c 0
 260.4921875 91.9013671875 215.045898438 135.838867188 222.755859375 190 c 0
 232.71875 259.994140625 317.7109375 277.727539062 387.928710938 281 c 0
 547.376953125 288.431640625 579.483398438 327.166015625 627.856445312 345.561523438 c 9
 652.0859375 323 l 17
EndSplineSet
Layer: 2
Layer: 3
EndChar

StartChar: si_Fa
Encoding: 61 3526 60
GlifName: si_F_a
Width: 775
VWidth: -24
Flags: W
HStem: -8 83<454.224 597.664>
VStem: 359.557 56<288 322.484>
LayerCount: 4
Back
Fore
SplineSet
285.440429688 2 m 1
 254.809570312 -10.3193359375 217.817382812 -26.75390625 167.870117188 -18.93359375 c 0
 28.0458984375 2.9599609375 8.5654296875 130.752929688 26.03125 233 c 4
 52.49609375 387.927734375 139.884765625 535 276.129882812 537 c 0
 401.341796875 538.837890625 402.553710938 402 395.345703125 327 c 1
 397.713867188 330 381.9765625 324 384.345703125 327 c 1
 401.291015625 408 479.447265625 528.549804688 581.129882812 537 c 0
 713.481445312 547.999023438 757.498046875 418.00390625 743.451171875 299 c 0
 722.794921875 123.999023438 639.3046875 -5.02734375 521.984375 -8 c 0
 485.869140625 -8.9150390625 440.721679688 -12 417.94921875 -2 c 1
 449.473632812 100 l 1
 472.771484375 78 529.807617188 72 564.17578125 75 c 0
 624.891601562 80.2998046875 681.685546875 124.994140625 696.540039062 259 c 0
 707.623046875 358.990234375 652.10546875 422.399414062 554.255859375 424 c 0
 484.435546875 425.141601562 427.870117188 372 415.556640625 288 c 1
 359.556640625 288 l 1
 371.466796875 385 285.814453125 443.04296875 216.869140625 429 c 0
 145.330078125 414.428710938 90.392578125 368.002929688 77.3818359375 284 c 4
 62.0830078125 185.224609375 74.0888671875 75.6630859375 190.403320312 75 c 0
 216.796875 74.849609375 243.400390625 77.8125 278.473632812 100 c 1
 285.440429688 2 l 1
EndSplineSet
Layer: 2
Layer: 3
EndChar

StartChar: si_Halant
Encoding: 62 3530 61
GlifName: si_H_alant
Width: -3
VWidth: -36
Flags: W
VStem: -41.9248 59<514 683.795>
AnchorPoint: "si_hal" -29.0479 513 mark 0
LayerCount: 4
Back
SplineSet
27 866 m 1
 27 820.333333333 27 774.666666667 27 729 c 1
 43 708 61.9816697278 706.276759429 75 707 c 0
 93 708 108 727 105 767 c 0
 102 806 74 850 27 866 c 1
5 685 m 1
 4.828125 683.069335938 24.6865234375 688.06640625 24.572265625 686 c 1
 22.0244140625 639.911132812 33.3857421875 532.184570312 42 514 c 5
 -17 514 l 5
 -24 565 -22 670 -22 737 c 1
 -23 920 l 1
 53 911 168 868 164 743 c 0
 162 689 124.046875 657 81 657 c 0
 40 657 14 679 5 685 c 1
EndSplineSet
Fore
SplineSet
45.294921875 866 m 1
 39.6875 820.333007812 34.0810546875 774.666992188 28.4736328125 729 c 1
 41.89453125 708 60.6650390625 706.276367188 73.7724609375 707 c 0
 91.89453125 708 109.227539062 727 111.139648438 767 c 0
 112.927734375 806 90.330078125 850 45.294921875 866 c 1
1.0712890625 685 m 1
 0.662109375 683.069335938 21.1337890625 688.06640625 20.765625 686 c 1
 12.5595703125 639.911132812 10.693359375 532.184570312 17.0751953125 514 c 5
 -41.9248046875 514 l 5
 -42.6630859375 565 -27.7705078125 670 -19.5439453125 737 c 1
 1.9248046875 920 l 1
 76.8203125 911 186.540039062 868 167.192382812 743 c 0
 158.5625 689 116.6796875 657 73.6328125 657 c 0
 32.6328125 657 9.333984375 679 1.0712890625 685 c 1
EndSplineSet
Layer: 2
Layer: 3
EndChar

StartChar: si_MatraAa
Encoding: 63 3535 62
GlifName: si_M_atraA_a
Width: 362
VWidth: -11
Flags: W
HStem: -33 51<47.4699 149.405> 447 52<94.0196 196.523>
VStem: -19.835 43.5615<42.0053 51.6601>
LayerCount: 4
Back
SplineSet
-7 398 m 9
 30 376 l 17
 36 402 67 446 115 446 c 0
 180 445 226 383 225 238 c 0
 224 140 197 20 121 18 c 0
 67 17 48 47 28 76 c 9
 -7 47 l 17
 7 12 45 -35 121 -33 c 0
 267 -29 321 136 322 240 c 0
 324 381 274 500 141 499 c 0
 74 498 15 461 -7 398 c 9
EndSplineSet
Fore
SplineSet
16.6494140625 393 m 9
 57.5615234375 376 l 17
 66.75390625 402 103.279296875 447 144.279296875 447 c 0
 209.287109375 447 246.420898438 383 225.6171875 238 c 0
 211.559570312 140.015625 180.823242188 19.7275390625 104.604492188 18 c 0
 60.482421875 17 33.1650390625 47 23.7265625 76 c 9
 -19.8349609375 47 l 17
 -10.1318359375 12 22.0966796875 -35 98.3427734375 -33 c 0
 244.833984375 -29 307.1484375 136.037109375 322.86328125 240 c 0
 344.17578125 381 300.787109375 500 173.6640625 499 c 0
 106.59375 498.47265625 45.7529296875 459 16.6494140625 393 c 9
EndSplineSet
Layer: 2
Layer: 3
EndChar

StartChar: si_MatraAe
Encoding: 64 3536 63
GlifName: si_M_atraA_e
Width: 362
VWidth: -11
Flags: W
HStem: 310.856 48.2598<82.6709 221.049>
LayerCount: 4
Back
Fore
SplineSet
129.364257812 96 m 0
 98.556640625 8.4892578125 99.6416015625 -89.5732421875 200.666015625 -97 c 0
 263.7890625 -101.640625 298.833007812 -71.2119140625 324.314453125 -51 c 1
 342.61328125 -73 l 1
 322.35546875 -116.75 242.936523438 -174.841796875 162.334960938 -173 c 0
 25.7861328125 -169.87890625 9.134765625 -73.234375 37.48828125 40 c 0
 68.8203125 165.129882812 178.778320312 275.708007812 221.048828125 312 c 1
 186.245117188 311.661132812 118.98046875 311.188476562 75.7451171875 310.856445312 c 1
 82.6708984375 359.116210938 l 1
 100.903320312 359.107421875 250.9375 358.998046875 277.65625 359 c 1
 270.780273438 303 l 1
 217.404296875 268.3671875 155.572265625 170.446289062 129.364257812 96 c 0
EndSplineSet
Layer: 2
Layer: 3
EndChar

StartChar: si_MatraAae
Encoding: 65 3537 64
GlifName: si_M_atraA_ae
Width: 347
VWidth: -11
Flags: W
HStem: 260.856 28.2598<68.9199 219.732> 334 28<67.8477 202.409 236.013 257.673>
LayerCount: 4
Back
Fore
SplineSet
67.84765625 362 m 1
 261.84765625 362 l 1
 257.672851562 328 l 1
 68.919921875 273 l 1
 48.8837890625 289 l 1
 202.409179688 334 l 1
 64.4091796875 334 l 1
 67.84765625 362 l 1
125.204101562 88 m 0
 96.068359375 4.6083984375 88.4501953125 -90.5087890625 185.489257812 -97 c 0
 248.69140625 -101.227539062 283.655273438 -71.2119140625 309.137695312 -51 c 1
 327.436523438 -73 l 1
 307.178710938 -116.75 227.759765625 -174.841796875 147.158203125 -173 c 0
 10.609375 -169.87890625 -11.2705078125 -72.42578125 22.310546875 40 c 0
 54.6455078125 148.252929688 164.743164062 232.37890625 219.732421875 262 c 1
 177.76953125 261.661132812 97.560546875 261.188476562 45.4287109375 260.856445312 c 1
 48.8984375 289.116210938 l 1
 68.19921875 289.107421875 234.6015625 288.998046875 262.883789062 289 c 1
 258.463867188 253 l 1
 210.036132812 225.39453125 149.587890625 157.787109375 125.204101562 88 c 0
EndSplineSet
Layer: 2
Layer: 3
EndChar

StartChar: si_MatraI
Encoding: 66 3538 65
GlifName: si_M_atraI_
Width: 0
VWidth: -28
Flags: W
HStem: 703 97<-145.881 153.983>
AnchorPoint: "si_MaI" -12.958 559 mark 0
LayerCount: 4
Back
SplineSet
-165 409 m 13
 -143 446 l 21
 -169 452 -213 484 -213 538 c 4
 -214 603 -145 642 0 641 c 4
 98 640 203 609 205 543 c 4
 206 489 176 462 147 442 c 13
 176 407 l 21
 211 421 258 461 256 537 c 4
 252 683 102 737 -2 738 c 4
 -143 740 -267 690 -266 557 c 4
 -265 490 -228 429 -165 409 c 13
EndSplineSet
Fore
SplineSet
-201.395507812 531 m 21
 -261.940429688 551 -301.200195312 588.24609375 -287.170898438 655 c 4
 -265.5234375 758 -122.12109375 802 18.6337890625 800 c 4
 122.510742188 799 262.202148438 764.702148438 265.3203125 659 c 4
 267.249023438 593.627929688 216.078125 543 179.358398438 529 c 13
 163.428710938 554 l 21
 188.883789062 574 206.178710938 594.73046875 201.374023438 635 c 4
 194.397460938 693.477539062 72.5966796875 701.96875 4.7236328125 703 c 4
 -90.09375 704.44140625 -208.908203125 706 -225.889648438 641 c 4
 -239.86328125 587.510742188 -201.870117188 576 -180.098632812 566 c 13
 -201.395507812 531 l 21
EndSplineSet
Layer: 2
Layer: 3
EndChar

StartChar: si_MatraIi
Encoding: 67 3539 66
GlifName: si_M_atraI_i
Width: 0
VWidth: -28
Flags: W
HStem: 703 97<-145.881 153.983>
AnchorPoint: "si_MaI" -12.958 559 mark 0
LayerCount: 4
Back
Fore
SplineSet
-201.395507812 531 m 21
 -261.940429688 551 -301.200195312 588.24609375 -287.170898438 655 c 4
 -265.5234375 758 -122.12109375 802 18.6337890625 800 c 4
 122.510742188 799 262.202148438 764.702148438 265.3203125 659 c 4
 267.249023438 593.627929688 216.078125 543 179.358398438 529 c 13
 163.428710938 554 l 21
 188.883789062 574 206.178710938 594.73046875 201.374023438 635 c 4
 194.397460938 693.477539062 72.5966796875 701.96875 4.7236328125 703 c 4
 -90.09375 704.44140625 -208.908203125 706 -225.889648438 641 c 4
 -239.86328125 587.510742188 -201.870117188 576 -180.098632812 566 c 13
 -201.395507812 531 l 21
EndSplineSet
Layer: 2
Layer: 3
EndChar

StartChar: si_MatraU
Encoding: 68 3540 67
GlifName: si_M_atraU_
Width: 0
VWidth: 0
Flags: W
HStem: -370.587 85.3398<-438.35 -57.8633>
AnchorPoint: "si_MaU" 55.1611 169.28 mark 0
LayerCount: 4
Back
Fore
SplineSet
-389.744140625 -115 m 17
 -368.497070312 -160 l 1
 -367.639648438 -152.99609375 -438.997070312 -191.887695312 -443.182617188 -226 c 0
 -448.89453125 -272.552734375 -426.346679688 -285.247070312 -374.647460938 -285.247070312 c 1
 -57.86328125 -287 l 9
 -1.873046875 169 l 25
 55.126953125 169 l 25
 -4.685546875 -367 l 17
 -4.685546875 -367 -281.009765625 -369.6796875 -457.125976562 -370.586914062 c 0
 -537.176757812 -371 -572.35546875 -321.6015625 -566.8984375 -271 c 0
 -555.13671875 -161.938476562 -389.744140625 -115 -389.744140625 -115 c 17
EndSplineSet
Layer: 2
Layer: 3
EndChar

StartChar: si_MatraUu
Encoding: 69 3542 68
GlifName: si_M_atraU_u
Width: 0
VWidth: 0
Flags: W
AnchorPoint: "si_MaU" 26.627 164 mark 0
LayerCount: 4
Back
Fore
SplineSet
-460.76953125 -165 m 25
 -459.329101562 -251 l 25
 65.162109375 -247 l 25
 105.329101562 129 l 25
 18.3291015625 129 l 25
 -18.015625 -167 l 25
 -460.76953125 -165 l 25
EndSplineSet
Layer: 2
Layer: 3
EndChar

StartChar: si_MatraE
Encoding: 71 3545 70
GlifName: si_M_atraE_
Width: 573
VWidth: -10
Flags: W
HStem: 369 2<344.209 371.945> 371 34<344.209 371.625>
LayerCount: 4
Back
SplineSet
321 157 m 0
 263.09765625 160.356445312 233 204 233 247 c 0
 233 321 297.996232903 364.285672889 366 365 c 0
 457.000474036 365.955889776 551 305 546 172 c 0
 542 72 461 -44 295 -44 c 0
 121 -44 29 78 38 244 c 0
 48 418 172.997006015 536 340 536 c 0
 456 536 519 479 519 479 c 0
 497 442 l 1
 495 442 431 493 334 492 c 0
 208 490 112 395 112 248 c 0
 112 148 166.99662166 46 313 46 c 0
 415 46 481 101 486 172 c 0
 492.13137524 259.065528412 431 314 362 313 c 0
 308 312 284 287 284 253 c 0
 284 229 302 206 330 206 c 0
 363 206 381 231 381 256 c 0
 381 293 352 314 345 314 c 1
 372 320 404.418945312 313.581054688 406 312 c 0
 415 303 429 282 429 253 c 0
 429 208 390 153 321 157 c 0
EndSplineSet
Fore
SplineSet
300.072265625 189 m 0x80
 242.52734375 192.048828125 218.842773438 245 224.123046875 288 c 0
 233.208984375 362 310.51953125 404.286132812 380.611328125 405 c 0x40
 471.7265625 405.928710938 558.244140625 345 536.9140625 212 c 0
 520.635742188 112 402.392578125 -4 236.392578125 -4 c 0
 59.392578125 -4 11.2216796875 158.791992188 37.7548828125 284 c 0
 72.787109375 449.315429688 208.604492188 556 375.607421875 556 c 0
 501.607421875 556 567.608398438 459 567.608398438 459 c 0
 551.434570312 425 l 1
 549.434570312 425 461.696289062 486 354.573242188 475 c 0
 229.072265625 462.11328125 116.522460938 375 91.4736328125 258 c 0
 70.330078125 159.240234375 119.244140625 95.3134765625 238.670898438 86 c 0
 340.203125 78.08203125 442.354492188 126 468.159179688 214 c 0
 493.389648438 300.040039062 441.0859375 370 371.962890625 369 c 0
 317.840820312 368 286.034179688 327 281.859375 293 c 0
 278.913085938 269 297.206054688 246.84765625 325.088867188 246 c 0
 357.965820312 245 389.158203125 271 392.227539062 296 c 0
 397.26171875 337 351.208984375 371 344.208984375 371 c 1
 371.9453125 377 404.067382812 364.581054688 405.454101562 363 c 0
 413.349609375 354 435.629882812 340 429.859375 293 c 0
 424.333984375 248 375.581054688 184.999023438 300.072265625 189 c 0x80
EndSplineSet
Layer: 2
Layer: 3
EndChar

StartChar: si_VI
Encoding: 365 -1 79
GlifName: si_V_I_
Width: 646
VWidth: -14
Flags: HW
LayerCount: 4
Back
SplineSet
70.1494140625 693.880859375 m 0
 50.1494140625 830 211.120117188 859 342 859 c 0
 564.331054688 859 637.389648438 774.221679688 646 697 c 0
 655.752929688 609.526367188 621.57421875 559.895507812 552 526 c 25
 520 572 l 25
 540 608 558.004882812 643.44140625 550 684 c 0
 538.173828125 743.91796875 425 790 348 791 c 24
 233.20703125 792.114257812 129.95703125 773.48046875 143.40625 703.064453125 c 4
 148.092773438 678.52734375 182.534179688 620.26953125 311 630 c 0
 527.3828125 646.389648438 658 537 658 321 c 0
 658 107 545 -56 299 -58 c 0
 163 -59 24 8 24 137 c 0
 24 291 183 335 305 328 c 1
 315 388 282 438 190 438 c 1
 164 357 l 1
 113 350 78 379 87 425 c 0
 97 481 155 501 202 501 c 0
 278 501 361 469 362 359 c 0
 362 323 354 272 354 272 c 1
 208 288 105 252 107 158 c 0
 108 94 181 42 321 43 c 0
 490 44 587 173 587 326 c 0
 587 510 493.47265625 583.43359375 300 569 c 0
 154.643554688 558.15625 82.3310546875 610.970703125 70.1494140625 693.880859375 c 0
EndSplineSet
Fore
SplineSet
250 260 m 1
 264 269 305 347 305 379 c 0
 305 402 290.969726562 411.192382812 253 413 c 0
 232 414 205 402 205 402 c 0
 161 347 l 0
 131 344 110 355 110 386 c 0
 110 447 188 477 242 477 c 0
 289 477 346 454 346 391 c 0
 346 346 329 279 316 252 c 1
 250 260 l 1
316 253 m 1
 241.482421875 262 95 264 95 160 c 0
 95 97.7939453125 184.950195312 65.705078125 292 77 c 0
 466.337890625 95.39453125 554.7421875 258.984375 567 409 c 0
 606 434 l 0
 606 196 506.155273438 -1 265 -15 c 0
 142.1953125 -22.12890625 45.2626953125 34.798828125 54 141 c 0
 63.2890625 253.911132812 146.805664062 333.557617188 312 342 c 1
 316 253 l 1
EndSplineSet
Refer: 561 -1 N 1 0 0.122785 1 -72.2806 0 2
Layer: 2
Layer: 3
Ligature2: "si_abvs_1 subtable" si_Va si_MatraI
LCarets2: 1 -72
Ligature2: "'abvs' Above Base Substitutions in Sinhala lookup 0-1" si_Va si_MatraI
EndChar

StartChar: si_TtI
Encoding: 198 -1 204
GlifName: si_T_tI_
Width: 725
VWidth: -14
Flags: HW
HStem: -59 103<219.35 450.494> 343 55<194.078 364.907> 592.443 53.6885<146.24 455.536> 801 76<212.121 457.213>
VStem: 46 71<129.757 266.127> 607 75<209.299 322> 618 62<321 430.327>
LayerCount: 4
Back
Fore
SplineSet
366 329 m 1xfc
 343 338 300 345 273 343 c 0
 202 338 115.5149564 300.478264259 117 198 c 0
 118.4140625 100.419921875 207 45 340 44 c 0
 534.997070312 42.5341796875 603.875976562 198.346679688 607 323 c 0
 682 322 l 0
 680.189453125 113.185546875 560 -59 320 -59 c 0
 137 -59 40.7906648242 50.1077332517 46 176 c 0
 52 321 165 394 276 398 c 0
 338 400 378 379 378 379 c 1
 366 329 l 1xfc
EndSplineSet
Refer: 561 -1 N 1 0 0 1 0 0 2
Layer: 2
Layer: 3
Ligature2: "si_abvs_1 subtable" si_Tta si_MatraI
Ligature2: "'abvs' Above Base Substitutions in Sinhala lookup 0-1" si_Tta si_MatraI
EndChar

StartChar: si_TtIi
Encoding: 199 -1 205
GlifName: si_T_tI_i
Width: 725
VWidth: -14
Flags: HW
HStem: -59 103<219.35 450.494> 343 55<194.078 364.907> 592.443 53.6885<156.24 404.297> 801 76<222.122 469.686>
VStem: 46 71<129.757 266.127> 394 52.0371<643.319 730.04> 564 71<639.904 731.519> 607 75<209.299 322 321 443.422>
LayerCount: 4
Back
Fore
SplineSet
366 329 m 1xfd
 343 338 300 345 273 343 c 0
 202 338 115.5149564 300.478264259 117 198 c 0
 118.4140625 100.419921875 207 45 340 44 c 0
 534.997070312 42.5341796875 603.875976562 198.346679688 607 323 c 0
 682 322 l 0
 680.189453125 113.185546875 560 -59 320 -59 c 0
 137 -59 40.7906648242 50.1077332517 46 176 c 0
 52 321 165 394 276 398 c 0
 338 400 378 379 378 379 c 1
 366 329 l 1xfd
EndSplineSet
Refer: 562 -1 S 1 0 0 1 0 0 2
Layer: 2
Layer: 3
Ligature2: "si_abvs_2 subtable" si_Tta si_MatraIi
EndChar

StartChar: si_TI
Encoding: 239 -1 245
GlifName: si_T_I_
Width: 940
VWidth: -24
Flags: HW
HStem: -16 42<541 675.685> -16 401<369 492> 458 85<544.493 721.101>
VStem: 67 88<415.704 459.697> 303 54<420.36 485.729> 325 47<422 555.599> 833 91<551.208 661.652>
LayerCount: 4
Back
SplineSet
453 449 m 21
 410 449 361.782226562 516.635742188 372 603 c 4
 388.934570312 746.133789062 509.024414062 844.5078125 670 848 c 4
 814.000976562 851.124023438 957.903320312 782.702148438 964 637 c 4
 966.764648438 570.931640625 939 511 854 487 c 13
 835 512 l 21
 858 532 875.19140625 561.625 873 603 c 4
 868.84375 681.477539062 765.885742188 754.201171875 648 751 c 4
 522.724609375 747.59765625 432.321289062 674.565429688 425 589 c 4
 419.583007812 525.689453125 457 494 470 474 c 13
 453 449 l 21
EndSplineSet
Refer: 9 3501 S 1 0 0 1 0 0 2
Fore
Refer: 574 -1 N 1 0 0 1 630 0 2
Refer: 9 3501 N 1 0 0 1 0 0 2
Layer: 2
Layer: 3
LCarets2: 1 0
Ligature2: "si_abvs_1 subtable" si_Ta si_MatraI
EndChar

StartChar: si_TIi
Encoding: 240 -1 246
GlifName: si_T_I_i
Width: 940
VWidth: -24
Flags: W
HStem: -16 42<541 675.685> -16 401<369 492> 458 85<544.493 721.101> 492 63<730.113 815.797>
VStem: 67 88<415.704 459.697> 303 54<420.36 485.729> 317 47<427 560.599> 636 76<574.053 681.871> 825 91<565.837 678.374>
AnchorPoint: "si_MaI" 622 489 mark 0
LayerCount: 4
Back
Fore
SplineSet
317 427 m 1x1b80
 319.586914062 689.754882812 480.518547864 816.205147793 652 833 c 0
 786.000976562 846.124023438 920.791692129 777.673684576 916 642 c 0
 913.940185547 583.67767693 881.333333333 492 786 492 c 1
 676.076686501 492.000002228 633.558376437 552.792051998 636 619 c 0
 637.942019745 679.022037163 687.117908899 724.326048316 740 743 c 1
 760.968082501 734.068306627 781.218291421 724.317699544 800 714 c 1
 754 714 716.37918509 680.631318228 712 629 c 0
 710.627174559 594.718865376 732.490804277 555 775 555 c 0
 806.914762406 555 825.445623509 579.684590917 825 608 c 0
 823.291521193 716.558627094 717.885723905 746.201365225 610 736 c 0
 485.984375 724.2734375 365.77734375 641.188476562 364 427 c 1
 317 427 l 1x1b80
EndSplineSet
Refer: 9 3501 N 1 0 0 1 0 0 2
Layer: 2
Layer: 3
Ligature2: "si_abvs_2 subtable" si_Ta si_MatraIi
EndChar

StartChar: si_DI
Encoding: 255 -1 264
GlifName: si_D_I_
Width: 569
VWidth: -17
Flags: HW
HStem: 451 35<204.066 210.4> 713 97<244.553 433.441>
VStem: 106 63<520.996 652.946> 497 61<553.191 657.866>
LayerCount: 4
Back
Fore
SplineSet
207 451 m 17
 144 471 106.650390625 537.995117188 106 605 c 0
 105 708 213 812 354 810 c 0
 458 809 555.903320312 734.702148438 558 629 c 0
 559.311523438 562.887695312 513 513 478 499 c 9
 459 524 l 17
 482 544 498.944335938 563.61328125 497 605 c 4
 492.84375 693.477539062 390 711.96875 322 713 c 4
 227.005859375 714.44140625 168 656 169 591 c 0
 169.831054688 537.006835938 201 496 224 486 c 9
 207 451 l 17
EndSplineSet
Refer: 46 3503 N 1 0 0 1 0 0 2
Layer: 2
Layer: 3
Ligature2: "si_abvs_1 subtable" si_Da si_MatraI
Ligature2: "'abvs' Above Base Substitutions in Sinhala lookup 0-1" si_Da si_MatraI
EndChar

StartChar: si_PU
Encoding: 291 -1 310
GlifName: si_P_U_
Width: 681
VWidth: -24
Flags: HW
HStem: -372.587 74.5869<82.0669 484.715>
LayerCount: 4
Back
Fore
SplineSet
192.7109375 -117 m 1
 205.186523438 -192 l 1
 206.173828125 -183.934570312 97.7048205043 -200.278568625 79.2724609375 -238 c 0
 62.7158203125 -271.8828125 89.1962890625 -298 147.71484375 -298 c 1
 484.71484375 -298 l 1
 535.670898438 127 l 1
 582.670898438 127 l 1
 527.76953125 -369 l 1
 527.76953125 -369 336.514648438 -371.4765625 125.329101562 -372.586914062 c 0
 45.2783203125 -373 10.099609375 -323.6015625 15.556640625 -273 c 0
 27.3193359375 -163.938476562 192.7109375 -117 192.7109375 -117 c 1
EndSplineSet
Refer: 1 3508 N 1 0 0 1 0 0 2
Layer: 2
Layer: 3
LCarets2: 1 0
Ligature2: "si_blws_1 subtable" si_Pa si_MatraU
EndChar

StartChar: si_VIi
Encoding: 366 -1 384
GlifName: si_V_I_i
Width: 726
VWidth: -14
Flags: HW
HStem: -58 100<211.852 445.682> 428 62<212 293.758> 592.443 53.6885<156.24 404.297> 801 76<222.122 469.686>
VStem: 46 83<107.912 216.652> 327 57<318.386 396.84> 394 52.0371<643.319 730.04> 564 71<639.904 731.519> 607 75<206.693 321 321 443.422>
LayerCount: 4
Back
Fore
SplineSet
357.888671875 262 m 1xfe80
 213.853515625 278 104.80078125 245 98.119140625 158 c 0
 93.2080078125 94.0595703125 159.752929688 41 299.875976562 42 c 0
 468.999023438 43 577.9609375 173 596.747070312 326 c 0
 671.1328125 321 l 0
 644.856445312 107 513.79296875 -56.423828125 277.59765625 -58 c 0
 121.469726562 -59.0419921875 0.0556640625 8.0439453125 12.5400390625 137 c 0
 27.44921875 291 194.624023438 325 315.764648438 318 c 1
 333.131835938 378 306.270507812 428 214.270507812 428 c 1
 178.325195312 347 l 1
 126.465820312 340 95.0263671875 369 109.674804688 415 c 0
 126.55078125 471 186.883789062 490 233.883789062 490 c 0
 309.883789062 490 385.340820312 453 376.5703125 349 c 0
 373.537109375 313.026367188 357.888671875 262 357.888671875 262 c 1xfe80
EndSplineSet
Refer: 562 -1 N 1 0 0.122785 1 -50.281 0 2
Layer: 2
Layer: 3
Ligature2: "si_abvs_2 subtable" si_Va si_MatraIi
LCarets2: 1 -50
Ligature2: "'abvs' Above Base Substitutions in Sinhala lookup 0-2" si_Va si_MatraIi
EndChar

StartChar: I_comp
Encoding: 569 -1 561
GlifName: I__comp
Width: 726
VWidth: -14
Flags: HW
HStem: 592.443 53.6885<146.24 455.536> 801 76<212.121 457.213>
VStem: 618 62<321 430.327>
LayerCount: 4
Back
Fore
SplineSet
126.026367188 703.880859375 m 0
 137.783203125 785.491210938 241.061523438 880.200195312 422.1328125 867 c 0
 549.283203125 857.73046875 612.032226562 776.428710938 580.576171875 677 c 0
 560.209960938 612.626953125 510 569.895507812 451.174804688 576 c 9
 413.682617188 642 l 17
 460.735351562 628 549.232421875 643.44140625 553.435546875 694 c 0
 558.508789062 755.025390625 473.822265625 793.307617188 356.801757812 801 c 0
 222.19921875 809.848632812 179.049804688 769.6875 166.796875 718.064453125 c 0
 159.875976562 688.90625 180.846679688 658.563476562 232.056640625 649.33984375 c 0
 276.563476562 641.323242188 296.462890625 649.194335938 366.786132812 646.131835938 c 0
 546.681640625 638.298828125 649.759765625 515.607421875 625.865234375 321 c 0
 583.865234375 321 l 1
 603.984375 484.856445312 506.25390625 554.602539062 356.194335938 562.443359375 c 0
 281.556640625 566.34375 289.443359375 555.611328125 234.573242188 566.53515625 c 0
 172.122070312 578.96875 114.142011381 621.385325661 126.026367188 703.880859375 c 0
EndSplineSet
Layer: 2
Layer: 3
EndChar

StartChar: Ii_comp
Encoding: 570 -1 562
GlifName: I_i_comp
Width: 726
VWidth: -14
Flags: HW
HStem: 592.443 53.6885<156.24 404.297> 801 76<222.122 469.686>
VStem: 394 52.0371<643.319 730.04> 564 71<639.904 731.519> 607 75<321 443.422>
LayerCount: 4
Back
Fore
SplineSet
560.556640625 742 m 5xf0
 500.38671875 758.302734375 461.040039062 721.200195312 456.840820312 687 c 0
 452.735351562 653.5625 475.440429688 631.284179688 510.779296875 629.793945312 c 0
 536.750976562 628.698242188 570.163085938 644.154296875 574.435546875 684 c 0xf0
 580.982421875 745.06640625 503.657226562 801.115234375 356.80078125 801 c 4
 251.82421875 800.91796875 169.048828125 769.6875 156.795898438 708.064453125 c 0
 150.952148438 678.671875 160.846679688 657.563476562 192.056640625 648.33984375 c 0
 235.424804688 635.522460938 306.461914062 649.194335938 376.78515625 646.131835938 c 0
 556.681640625 638.298828125 671.758789062 515.607421875 647.864257812 321 c 0
 572.864257812 321 l 1xe8
 592.983398438 484.856445312 516.252929688 584.602539062 366.193359375 592.443359375 c 0
 291.556640625 596.34375 219.442382812 584.611328125 164.573242188 595.53515625 c 0
 102.12109375 607.96875 79.5068359375 650.7890625 86.025390625 703.880859375 c 0
 99.6689453125 815 241.104492188 875.526367188 402.1328125 877 c 0
 569.696289062 878.533203125 659.715820312 806.428710938 647.03125 697 c 0
 639.430664062 631.43359375 575.737304688 575.654296875 502.54296875 579 c 0
 480.666015625 580 392.513671875 591.7265625 404.459960938 684.200195312 c 0
 412.5 746.439453125 478.981445312 797.881835938 545.731445312 776 c 13
 560.556640625 742 l 5xf0
EndSplineSet
Layer: 2
Layer: 3
EndChar

StartChar: si_MatraI.alt
Encoding: 571 -1 563
GlifName: si_M_atraI_.alt
Width: 865
VWidth: -24
Flags: HW
HStem: 520 32<253.376 274.969 665.541 676.459> 717 92<313.284 614.664>
LayerCount: 4
Back
Fore
SplineSet
255.256835938 520 m 21
 183.484375 530 151.239257812 585.918945312 170.463867188 652 c 4
 203.338867188 765 338.614257812 808.053710938 479.741210938 809 c 4
 628.864257812 810 754.206054688 764.702148438 752.463867188 652 c 4
 751.448242188 586.251953125 695.870117188 525 650.379882812 521 c 13
 641.799804688 557 l 21
 676.02734375 567 702.985351562 594.228515625 699.008789062 632 c 4
 693.825195312 681.23828125 587.442382812 716.9765625 469.4453125 717 c 4
 344.443359375 717.025390625 238.76171875 687 223.008789062 632 c 4
 207.744140625 578.708984375 246.4140625 562 268.185546875 552 c 13
 255.256835938 520 l 21
EndSplineSet
Layer: 2
Layer: 3
EndChar

StartChar: si_MatraIi.alt
Encoding: 572 -1 564
GlifName: si_M_atraI_i.alt
Width: 776
VWidth: -24
Flags: HW
HStem: 505 44<547.886 616.762> 520 35<196.812 217.4> 697 92<240.946 508.088>
LayerCount: 4
Back
Fore
SplineSet
198.411132812 520 m 17x60
 137.8671875 540 98.607421875 577.24609375 112.63671875 644 c 0
 134.283203125 747 277.5703125 790.13671875 418.440429688 789 c 0
 542.317382812 788 692.495117188 731.920898438 679.303710938 625 c 0
 670.004882812 549.627929688 621.004882812 507.028320312 564.569335938 505 c 0
 508.5 502.984375 451.040039062 529.80859375 453.515625 586 c 0
 456.494140625 653.612304688 543.625 695.563476562 550.530273438 692 c 1
 605.302734375 682 l 1
 589.805664062 668.837890625 541.940429688 630.181640625 536.515625 586 c 0
 534.427734375 569 545.97265625 549 570.97265625 549 c 24xa0
 589.97265625 549 611.865234375 561.890625 613.515625 586 c 0
 618.307617188 656.051757812 467.017578125 695.96875 399.14453125 697 c 0
 304.327148438 698.44140625 190.8984375 695 173.91796875 630 c 0
 159.944335938 576.510742188 197.936523438 565 219.708984375 555 c 9
 198.411132812 520 l 17x60
EndSplineSet
Layer: 2
Layer: 3
EndChar

StartChar: si_MatraI.alt1
Encoding: 575 -1 574
GlifName: si_M_atraI_.alt1
Width: 0
VWidth: -24
Flags: HW
VStem: -305 47<422 555.599> 203 91<551.208 661.652>
AnchorPoint: "si_MaI" 0 484 mark 0
LayerCount: 4
Back
Fore
SplineSet
-305 422 m 17
 -242.413085938 644.754882812 -91.1325257992 767.961445695 80 788 c 0
 175.000976562 799.124023438 297.903320312 762.702148438 294 627 c 0
 292.098632812 560.901367188 249 491 174 467 c 9
 145 482 l 17
 178 502 208.87956538 551.771547372 213 593 c 0
 219.84375 661.477539062 182.237123091 709.865945348 90 718 c 0
 -85.2991962416 733.458995195 -206.22265625 606.188476562 -248 432 c 9
 -305 422 l 17
EndSplineSet
Layer: 2
Layer: 3
EndChar

StartChar: si_MatraIi.alt2
Encoding: 576 -1 575
GlifName: si_M_atraI_i.alt2
Width: 0
VWidth: -24
Flags: W
VStem: -305 47<422 555.599> 203 91<551.208 661.652>
AnchorPoint: "si_MaI" 0 484 mark 0
LayerCount: 4
Back
Fore
SplineSet
-305 422 m 17
 -302.413085938 684.754882812 -141.481445312 811.205078125 30 828 c 0
 164.000976562 841.124023438 297.903320312 772.702148438 294 637 c 0
 292.098632812 570.901367188 259 491 174 467 c 9
 155 492 l 17
 178 512 204.944335938 561.612304688 203 603 c 0
 198.84375 691.477539062 95.8857421875 741.201171875 -12 731 c 0
 -136.015625 719.2734375 -256.22265625 636.188476562 -258 422 c 9
 -305 422 l 17
EndSplineSet
Layer: 2
Layer: 3
EndChar
